<svg width="621" height="533" viewBox="0 0 621 533" fill="none" xmlns="http://www.w3.org/2000/svg">
<path d="M12.6137 272.151L7.57854 273.449L29.6449 359.066L34.6801 357.769L12.6137 272.151Z" fill="#FFE6A5"/>
<path d="M12.6137 272.151L7.57854 273.449L29.6449 359.066L34.6801 357.769L12.6137 272.151Z" stroke="black" stroke-miterlimit="10"/>
<path d="M16.9148 270.077L11.8932 271.392L34.2465 356.78L39.2682 355.466L16.9148 270.077Z" fill="#FFE6A5"/>
<path d="M16.9148 270.077L11.8932 271.392L34.2465 356.78L39.2682 355.466L16.9148 270.077Z" stroke="black" stroke-miterlimit="10"/>
<path d="M21.8497 268.786L16.8281 270.1L39.1814 355.489L44.2031 354.174L21.8497 268.786Z" fill="#FFE6A5"/>
<path d="M21.8497 268.786L16.8281 270.1L39.1814 355.489L44.2031 354.174L21.8497 268.786Z" stroke="black" stroke-miterlimit="10"/>
<path d="M27.2931 268.358L22.2579 269.656L44.3243 355.273L49.3595 353.976L27.2931 268.358Z" fill="#FFE6A5"/>
<path d="M27.2931 268.358L22.2579 269.656L44.3243 355.273L49.3595 353.976L27.2931 268.358Z" stroke="black" stroke-miterlimit="10"/>
<path d="M32.2445 267.08L27.2094 268.377L49.2758 353.995L54.3109 352.697L32.2445 267.08Z" fill="#FFE6A5"/>
<path d="M32.2445 267.08L27.2094 268.377L49.2758 353.995L54.3109 352.697L32.2445 267.08Z" stroke="black" stroke-miterlimit="10"/>
<path d="M32.7594 268.997L8.02345 275.372L13.5344 296.755L38.2704 290.38L32.7594 268.997Z" fill="#5FAF2D"/>
<path d="M32.7594 268.997L8.02345 275.372L13.5344 296.755L38.2704 290.38L32.7594 268.997Z" stroke="black" stroke-miterlimit="10"/>
<path fill-rule="evenodd" clip-rule="evenodd" d="M7.69278 274.926L4.20018 269.694L32.8387 262.195L32.3624 268.468L7.69278 274.926Z" fill="#5FAF2D"/>
<path d="M7.4926 274.735L4 269.502L32.6385 262.003L32.1623 268.276L7.4926 274.735Z" stroke="black" stroke-miterlimit="10"/>
<path fill-rule="evenodd" clip-rule="evenodd" d="M96.3699 372.356H43.2455C41.8167 372.356 40.4465 371.788 39.4362 370.778C38.4259 369.768 37.8583 368.397 37.8583 366.969V311.941C37.8582 309.517 38.4375 307.128 39.5482 304.973L44.8226 294.737V289.001H94.1786V294.685L99.8186 304.377C101.093 306.65 101.763 309.212 101.763 311.818V366.964C101.763 368.393 101.196 369.763 100.185 370.774C99.1752 371.784 97.8049 372.352 96.3762 372.352" fill="#FA9B7D"/>
<path d="M96.3699 372.356H43.2455C41.8167 372.356 40.4465 371.788 39.4362 370.778C38.4259 369.768 37.8583 368.397 37.8583 366.969V311.941C37.8582 309.517 38.4375 307.128 39.5482 304.973L44.8226 294.737V289.001H94.1786V294.685L99.8186 304.377C101.093 306.65 101.763 309.212 101.763 311.818V366.964C101.764 367.673 101.625 368.374 101.354 369.029C101.083 369.683 100.686 370.278 100.185 370.779C99.6838 371.279 99.089 371.677 98.4344 371.947C97.7798 372.218 97.0782 372.357 96.3699 372.356Z" stroke="black" stroke-miterlimit="10"/>
<path d="M90.145 372.356C88.7162 372.356 87.346 371.788 86.3357 370.778C85.3254 369.768 84.7578 368.397 84.7578 366.969V311.941C84.7577 309.517 85.3371 307.128 86.4477 304.973L91.7221 294.737V289.001" stroke="black" stroke-width="1.66" stroke-miterlimit="10"/>
<path d="M101.757 321.974H37.8541V353.924H101.757V321.974Z" fill="#D2D7DC"/>
<path d="M101.757 321.974H37.8541V353.924H101.757V321.974Z" stroke="black" stroke-width="1.66" stroke-miterlimit="10"/>
<path fill-rule="evenodd" clip-rule="evenodd" d="M61.8616 337.11C61.8616 337.11 55.3568 339.632 49.5769 337.319C40.5571 333.722 40.2125 324.93 40.2125 324.93C40.2125 324.93 40.4213 323.767 43.5442 322.893C46.8217 321.978 47.7032 322.96 47.7032 322.96C47.7032 322.96 48.3298 327.765 52.2026 329.333C55.7182 330.758 59.7226 329.352 59.7226 329.352L61.8616 337.11Z" fill="#FCEFBB"/>
<path d="M61.8616 337.11C61.8616 337.11 55.3568 339.632 49.5769 337.319C40.5571 333.722 40.2125 324.93 40.2125 324.93C40.2125 324.93 40.4213 323.767 43.5442 322.893C46.8217 321.978 47.7032 322.96 47.7032 322.96C47.7032 322.96 48.3298 327.765 52.2026 329.333C55.7182 330.758 59.7226 329.352 59.7226 329.352L61.8616 337.11Z" stroke="black" stroke-width="1.66" stroke-miterlimit="10"/>
<path fill-rule="evenodd" clip-rule="evenodd" d="M62.3755 332.82C62.9415 334.965 62.7013 336.889 61.8344 337.118C60.9676 337.348 59.804 335.79 59.238 333.645C58.6719 331.499 58.9121 329.573 59.779 329.346C60.6459 329.118 61.8073 330.674 62.3755 332.82Z" fill="#FCEFBB"/>
<path d="M62.3755 332.82C62.9415 334.965 62.7013 336.889 61.8344 337.118C60.9676 337.348 59.804 335.79 59.238 333.645C58.6719 331.499 58.9121 329.573 59.779 329.346C60.6459 329.118 61.8094 330.674 62.3755 332.82Z" stroke="black" stroke-width="1.66" stroke-miterlimit="10"/>
<path fill-rule="evenodd" clip-rule="evenodd" d="M81.7164 336.494C81.7164 336.494 74.9944 337.252 70.1482 333.67C62.5843 328.076 64.4414 319.752 64.4414 319.752C64.4414 319.752 64.9239 318.707 68.0698 318.663C71.366 318.613 71.9509 319.752 71.9509 319.752C71.9509 319.752 71.3409 324.403 74.5891 326.833C77.5303 329.032 81.6391 328.713 81.6391 328.713L81.7164 336.494Z" fill="#FCEFBB"/>
<path d="M81.7164 336.494C81.7164 336.494 74.9944 337.252 70.1482 333.67C62.5843 328.076 64.4414 319.752 64.4414 319.752C64.4414 319.752 64.9239 318.707 68.0698 318.663C71.366 318.613 71.9509 319.752 71.9509 319.752C71.9509 319.752 71.3409 324.403 74.5891 326.833C77.5303 329.032 81.6391 328.713 81.6391 328.713L81.7164 336.494Z" stroke="black" stroke-width="1.66" stroke-miterlimit="10"/>
<path fill-rule="evenodd" clip-rule="evenodd" d="M83.2642 332.6C83.2642 334.75 82.5603 336.494 81.6934 336.494C80.8265 336.494 80.1205 334.75 80.1205 332.6C80.1205 330.451 80.8244 328.704 81.6934 328.704C82.5624 328.704 83.2642 330.449 83.2642 332.6Z" fill="#FCEFBB"/>
<path d="M83.2642 332.6C83.2642 334.75 82.5603 336.494 81.6934 336.494C80.8265 336.494 80.1205 334.75 80.1205 332.6C80.1205 330.451 80.8244 328.704 81.6934 328.704C82.5624 328.704 83.2642 330.449 83.2642 332.6Z" stroke="black" stroke-width="1.66" stroke-miterlimit="10"/>
<path fill-rule="evenodd" clip-rule="evenodd" d="M107.441 330.269C107.441 330.269 103.499 336.498 97.1282 338.167C87.1851 340.774 81.3404 333.511 81.3404 333.511C81.3404 333.511 80.7827 332.391 82.8883 329.686C85.0962 326.85 86.4686 327.132 86.4686 327.132C86.4686 327.132 90.0197 330.827 94.3186 329.728C98.2081 328.73 100.734 325.016 100.734 325.016L107.441 330.269Z" fill="#FCEFBB"/>
<path d="M107.441 330.269C107.441 330.269 103.499 336.498 97.1282 338.167C87.1851 340.774 81.3404 333.511 81.3404 333.511C81.3404 333.511 80.7827 332.391 82.8883 329.686C85.0962 326.85 86.4686 327.132 86.4686 327.132C86.4686 327.132 90.0197 330.827 94.3186 329.728C98.2081 328.73 100.734 325.016 100.734 325.016L107.441 330.269Z" stroke="black" stroke-width="1.66" stroke-miterlimit="10"/>
<path fill-rule="evenodd" clip-rule="evenodd" d="M105.17 326.296C107.006 327.758 108.015 329.553 107.422 330.292C106.829 331.031 104.859 330.436 103.021 328.968C101.183 327.499 100.184 325.709 100.767 324.963C101.35 324.218 103.332 324.819 105.17 326.288" fill="#FCEFBB"/>
<path d="M105.17 326.296C107.006 327.758 108.015 329.553 107.422 330.292C106.829 331.032 104.859 330.436 103.021 328.968C101.183 327.499 100.184 325.709 100.767 324.963C101.35 324.218 103.332 324.828 105.17 326.296Z" stroke="black" stroke-width="1.66" stroke-miterlimit="10"/>
<path fill-rule="evenodd" clip-rule="evenodd" d="M59.9566 320.017C59.9566 320.017 56.7083 327.079 50.2788 329.714C40.2521 333.824 33.1166 327.044 33.1166 327.044C33.1166 327.044 32.375 325.951 34.1986 322.829C36.1099 319.555 37.5826 319.66 37.5826 319.66C37.5826 319.66 41.8251 323.027 46.147 321.279C50.0741 319.693 52.2047 315.457 52.2047 315.457L59.9566 320.017Z" fill="#FCEFBB"/>
<path d="M59.9566 320.017C59.9566 320.017 56.7083 327.079 50.2788 329.714C40.2521 333.824 33.1166 327.044 33.1166 327.044C33.1166 327.044 32.375 325.951 34.1986 322.829C36.1099 319.555 37.5826 319.66 37.5826 319.66C37.5826 319.66 41.8251 323.027 46.147 321.279C50.0741 319.693 52.2047 315.457 52.2047 315.457L59.9566 320.017Z" stroke="black" stroke-miterlimit="10"/>
<path fill-rule="evenodd" clip-rule="evenodd" d="M57.0237 316.178C59.1502 317.456 60.4579 319.188 59.9482 320.042C59.4385 320.896 57.289 320.55 55.1605 319.271C53.0319 317.993 51.7263 316.261 52.236 315.407C52.7457 314.552 54.8952 314.897 57.0237 316.178Z" fill="#FCEFBB"/>
<path d="M57.0237 316.178C59.1502 317.456 60.4579 319.188 59.9482 320.042C59.4385 320.896 57.289 320.55 55.1605 319.271C53.0319 317.993 51.7263 316.261 52.236 315.407C52.7457 314.552 54.8952 314.897 57.0237 316.178Z" stroke="black" stroke-miterlimit="10"/>
<path fill-rule="evenodd" clip-rule="evenodd" d="M104.136 337.125C104.136 337.125 105.722 343.684 102.754 348.921C98.1225 357.097 89.6061 356.286 89.6061 356.286C89.6061 356.286 88.5136 355.937 88.0771 352.831C87.6175 349.574 88.6787 348.862 88.6787 348.862C88.6787 348.862 93.3849 348.891 95.4007 345.378C97.2284 342.194 96.3929 338.169 96.3929 338.169L104.136 337.125Z" fill="#FCEFBB"/>
<path d="M104.136 337.125C104.136 337.125 105.722 343.684 102.754 348.921C98.1225 357.097 89.6061 356.286 89.6061 356.286C89.6061 356.286 88.5136 355.937 88.0771 352.831C87.6175 349.574 88.6787 348.862 88.6787 348.862C88.6787 348.862 93.3849 348.891 95.4007 345.378C97.2284 342.194 96.3929 338.169 96.3929 338.169L104.136 337.125Z" stroke="black" stroke-width="1.66" stroke-miterlimit="10"/>
<path fill-rule="evenodd" clip-rule="evenodd" d="M100.069 336.076C102.21 335.811 104.038 336.285 104.138 337.15C104.239 338.015 102.599 338.921 100.458 339.189C98.3167 339.456 96.4889 338.98 96.3866 338.113C96.2842 337.246 97.9282 336.342 100.069 336.076Z" fill="#FCEFBB"/>
<path d="M100.069 336.076C102.21 335.811 104.038 336.285 104.138 337.15C104.239 338.015 102.599 338.921 100.458 339.189C98.3167 339.456 96.4889 338.98 96.3866 338.113C96.2842 337.246 97.9282 336.342 100.069 336.076Z" stroke="black" stroke-width="1.66" stroke-miterlimit="10"/>
<path fill-rule="evenodd" clip-rule="evenodd" d="M93.0486 344.611C93.0486 344.611 86.3266 345.37 81.4783 341.785C73.9165 336.193 75.7735 327.867 75.7735 327.867C75.7735 327.867 76.2561 326.822 79.4019 326.779C82.6982 326.728 83.2831 327.867 83.2831 327.867C83.2831 327.867 82.6731 332.521 85.9192 334.948C88.8625 337.15 92.9713 336.828 92.9713 336.828L93.0486 344.611Z" fill="#FCEFBB"/>
<path d="M93.0486 344.611C93.0486 344.611 86.3266 345.37 81.4783 341.785C73.9165 336.193 75.7735 327.867 75.7735 327.867C75.7735 327.867 76.2561 326.822 79.4019 326.779C82.6982 326.728 83.2831 327.867 83.2831 327.867C83.2831 327.867 82.6731 332.521 85.9192 334.948C88.8625 337.15 92.9713 336.828 92.9713 336.828L93.0486 344.611Z" stroke="black" stroke-width="1.66" stroke-miterlimit="10"/>
<path fill-rule="evenodd" clip-rule="evenodd" d="M94.5943 340.715C94.5943 342.867 93.8904 344.609 93.0214 344.609C92.1524 344.609 91.4506 342.867 91.4506 340.715C91.4506 338.564 92.1545 336.82 93.0214 336.82C93.8883 336.82 94.5943 338.564 94.5943 340.715Z" fill="#FCEFBB"/>
<path d="M94.5943 340.715C94.5943 342.867 93.8904 344.609 93.0214 344.609C92.1524 344.609 91.4506 342.867 91.4506 340.715C91.4506 338.564 92.1545 336.82 93.0214 336.82C93.8883 336.82 94.5943 338.564 94.5943 340.715Z" stroke="black" stroke-width="1.66" stroke-miterlimit="10"/>
<path fill-rule="evenodd" clip-rule="evenodd" d="M77.758 343.475C77.758 343.475 71.038 344.233 66.1898 340.649C58.628 335.057 60.485 326.73 60.485 326.73C60.485 326.73 60.9675 325.686 64.1134 325.644C67.4097 325.594 67.9925 326.73 67.9925 326.73C67.9925 326.73 67.3846 331.384 70.6307 333.814C73.5739 336.013 77.6828 335.694 77.6828 335.694L77.758 343.475Z" fill="#FCEFBB"/>
<path d="M77.758 343.475C77.758 343.475 71.038 344.233 66.1898 340.649C58.628 335.057 60.485 326.73 60.485 326.73C60.485 326.73 60.9675 325.686 64.1134 325.644C67.4097 325.594 67.9925 326.73 67.9925 326.73C67.9925 326.73 67.3846 331.384 70.6307 333.814C73.574 336.013 77.6828 335.694 77.6828 335.694L77.758 343.475Z" stroke="black" stroke-width="1.66" stroke-miterlimit="10"/>
<path fill-rule="evenodd" clip-rule="evenodd" d="M79.3058 339.586C79.3058 341.737 78.6019 343.481 77.7329 343.481C76.8639 343.481 76.1621 341.731 76.1621 339.586C76.1621 337.44 76.8681 335.692 77.735 335.692C78.6019 335.692 79.3079 337.434 79.3079 339.586" fill="#FCEFBB"/>
<path d="M79.3058 339.586C79.3058 341.737 78.6019 343.481 77.7329 343.481C76.8639 343.481 76.1621 341.731 76.1621 339.586C76.1621 337.44 76.8681 335.692 77.735 335.692C78.6019 335.692 79.3058 337.428 79.3058 339.586Z" stroke="black" stroke-width="1.66" stroke-miterlimit="10"/>
<path fill-rule="evenodd" clip-rule="evenodd" d="M66.0143 345.004C66.0143 345.004 65.4503 351.726 60.9801 355.766C54.0032 362.072 46.1762 358.632 46.1762 358.632C46.1762 358.632 45.2487 357.957 45.8148 354.872C46.406 351.636 47.6405 351.287 47.6405 351.287C47.6405 351.287 52.1003 352.789 55.1208 350.088C57.8593 347.64 58.3356 343.556 58.3356 343.556L66.0143 345.004Z" fill="#FCEFBB"/>
<path d="M66.0143 345.004C66.0143 345.004 65.4503 351.726 60.9801 355.766C54.0032 362.072 46.1762 358.632 46.1762 358.632C46.1762 358.632 45.2487 357.957 45.8148 354.872C46.406 351.636 47.6405 351.287 47.6405 351.287C47.6405 351.287 52.1003 352.789 55.1208 350.088C57.8593 347.64 58.3356 343.556 58.3356 343.556L66.0143 345.004Z" stroke="black" stroke-width="1.66" stroke-miterlimit="10"/>
<path fill-rule="evenodd" clip-rule="evenodd" d="M62.4841 342.731C64.6001 343.149 66.1772 344.179 66.008 345.029C65.8388 345.879 63.986 346.226 61.8699 345.806C59.7539 345.386 58.1768 344.359 58.346 343.508C58.5152 342.658 60.368 342.309 62.4841 342.729" fill="#FCEFBB"/>
<path d="M62.4841 342.731C64.6001 343.149 66.1772 344.179 66.008 345.029C65.8388 345.879 63.986 346.226 61.8699 345.806C59.7539 345.386 58.1768 344.359 58.346 343.508C58.5152 342.658 60.368 342.312 62.4841 342.731Z" stroke="black" stroke-width="1.66" stroke-miterlimit="10"/>
<path fill-rule="evenodd" clip-rule="evenodd" d="M54.6215 328.859C54.6215 328.859 51.7368 334.961 46.1323 337.19C37.3883 340.67 31.2595 334.721 31.2595 334.721C31.2595 334.721 30.6328 333.764 32.2371 331.071C33.9249 328.247 35.2033 328.356 35.2033 328.356C35.2033 328.356 38.8547 331.318 42.6314 329.837C46.055 328.498 47.9329 324.838 47.9329 324.838L54.6215 328.859Z" fill="#FCEFBB"/>
<path d="M54.6215 328.859C54.6215 328.859 51.7368 334.961 46.1323 337.19C37.3883 340.67 31.2595 334.721 31.2595 334.721C31.2595 334.721 30.6328 333.764 32.2371 331.071C33.9249 328.247 35.2033 328.356 35.2033 328.356C35.2033 328.356 38.8547 331.318 42.6314 329.837C46.055 328.498 47.9329 324.838 47.9329 324.838L54.6215 328.859Z" stroke="black" stroke-width="1.66" stroke-miterlimit="10"/>
<path fill-rule="evenodd" clip-rule="evenodd" d="M52.1107 325.5C53.9468 326.63 55.0644 328.145 54.6174 328.88C54.1704 329.615 52.305 329.298 50.4689 328.17C48.6327 327.042 47.5152 325.525 47.9622 324.788C48.4092 324.05 50.2767 324.37 52.1128 325.5" fill="#FCEFBB"/>
<path d="M52.1107 325.5C53.9468 326.63 55.0644 328.145 54.6174 328.88C54.1704 329.615 52.305 329.298 50.4689 328.17C48.6327 327.042 47.5152 325.525 47.9622 324.788C48.4092 324.05 50.2746 324.37 52.1107 325.5Z" stroke="black" stroke-width="1.66" stroke-miterlimit="10"/>
<path fill-rule="evenodd" clip-rule="evenodd" d="M46.406 347.799C46.406 347.799 48.1398 341.28 53.2492 338.08C61.2224 333.085 68.3267 337.835 68.3267 337.835C68.3267 337.835 69.1225 338.671 68.0238 341.595C66.8728 344.676 65.5986 344.804 65.5986 344.804C65.5986 344.804 61.471 342.548 58.0222 344.682C54.8889 346.617 53.7129 350.552 53.7129 350.552L46.406 347.799Z" fill="#FCEFBB"/>
<path d="M46.406 347.799C46.406 347.799 48.1398 341.28 53.2492 338.08C61.2224 333.085 68.3267 337.835 68.3267 337.835C68.3267 337.835 69.1225 338.671 68.0238 341.595C66.8728 344.676 65.5986 344.804 65.5986 344.804C65.5986 344.804 61.471 342.548 58.0222 344.682C54.8889 346.617 53.7129 350.552 53.7129 350.552L46.406 347.799Z" stroke="black" stroke-width="1.66" stroke-miterlimit="10"/>
<path fill-rule="evenodd" clip-rule="evenodd" d="M49.4829 350.656C47.4734 349.875 46.0989 348.586 46.4143 347.78C46.7297 346.974 48.616 346.945 50.6255 347.734C52.635 348.524 54.0095 349.804 53.6941 350.611C53.3786 351.417 51.4924 351.446 49.4829 350.656Z" fill="#FCEFBB"/>
<path d="M49.4829 350.656C47.4734 349.875 46.0989 348.586 46.4143 347.78C46.7297 346.974 48.616 346.945 50.6255 347.734C52.635 348.524 54.0095 349.804 53.6941 350.611C53.3786 351.417 51.4924 351.434 49.4829 350.656Z" stroke="black" stroke-width="1.66" stroke-miterlimit="10"/>
<path fill-rule="evenodd" clip-rule="evenodd" d="M25.958 347.607C25.958 347.607 32.0032 343.932 38.1883 345.207C47.8389 347.191 49.7565 355.91 49.7565 355.91C49.7565 355.91 49.7565 357.109 46.7924 358.538C43.6863 360.034 42.6293 359.21 42.6293 359.21C42.6293 359.21 41.1504 354.525 36.9893 353.648C33.2293 352.852 29.4693 354.968 29.4693 354.968L25.958 347.607Z" fill="#FCEFBB"/>
<path d="M25.958 347.607C25.958 347.607 32.0032 343.932 38.1883 345.207C47.8389 347.191 49.7565 355.91 49.7565 355.91C49.7565 355.91 49.7565 357.109 46.7924 358.538C43.6863 360.034 42.6293 359.21 42.6293 359.21C42.6293 359.21 41.1504 354.525 36.9893 353.648C33.2293 352.852 29.4693 354.968 29.4693 354.968L25.958 347.607Z" stroke="black" stroke-width="1.66" stroke-miterlimit="10"/>
<path fill-rule="evenodd" clip-rule="evenodd" d="M26.2107 351.985C25.2602 349.942 25.1663 347.979 25.983 347.598C26.7998 347.218 28.2453 348.564 29.1978 350.604C30.1503 352.645 30.2422 354.613 29.4255 354.991C28.6087 355.369 27.1611 354.028 26.2107 351.985Z" fill="#FCEFBB"/>
<path d="M26.2107 351.985C25.2602 349.942 25.1663 347.979 25.983 347.598C26.7998 347.218 28.2453 348.564 29.1978 350.604C30.1503 352.645 30.2422 354.613 29.4255 354.991C28.6087 355.369 27.1611 354.028 26.2107 351.985Z" stroke="black" stroke-width="1.66" stroke-miterlimit="10"/>
<path fill-rule="evenodd" clip-rule="evenodd" d="M94.2455 325.484C94.2455 325.484 89.1988 329.975 83.1744 329.839C73.7599 329.63 70.4553 321.761 70.4553 321.761C70.4553 321.761 70.2464 320.635 72.7864 318.785C75.4414 316.846 76.5799 317.443 76.5799 317.443C76.5799 317.443 78.7794 321.594 82.8465 321.707C86.5229 321.809 89.6876 319.173 89.6876 319.173L94.2455 325.484Z" fill="#FCEFBB"/>
<path d="M94.2455 325.484C94.2455 325.484 89.1988 329.975 83.1744 329.839C73.7599 329.63 70.4553 321.761 70.4553 321.761C70.4553 321.761 70.2464 320.635 72.7864 318.785C75.4414 316.846 76.5799 317.443 76.5799 317.443C76.5799 317.443 78.7794 321.594 82.8465 321.707C86.5229 321.809 89.6876 319.173 89.6876 319.173L94.2455 325.484Z" stroke="black" stroke-miterlimit="10"/>
<path fill-rule="evenodd" clip-rule="evenodd" d="M93.2533 321.412C94.5066 323.169 94.9244 324.999 94.2246 325.498C93.5248 325.997 91.9269 324.98 90.6861 323.223C89.4453 321.467 89.0149 319.639 89.7126 319.137C90.4103 318.636 92.0104 319.656 93.2637 321.412" fill="#FCEFBB"/>
<path d="M93.2533 321.412C94.5066 323.169 94.9244 324.999 94.2246 325.498C93.5248 325.997 91.9269 324.98 90.6861 323.223C89.4453 321.467 89.0149 319.639 89.7126 319.137C90.4103 318.636 92.0062 319.656 93.2533 321.412Z" stroke="black" stroke-width="1.66" stroke-miterlimit="10"/>
<path fill-rule="evenodd" clip-rule="evenodd" d="M102.814 355.737C102.814 355.737 96.1506 354.571 92.518 349.769C86.8467 342.274 90.9868 334.81 90.9868 334.81C90.9868 334.81 91.743 333.948 94.774 334.787C97.9512 335.667 98.1893 336.924 98.1893 336.924C98.1893 336.924 96.2863 341.217 98.7136 344.461C100.913 347.4 104.949 348.242 104.949 348.242L102.814 355.737Z" fill="#FCEFBB"/>
<path d="M102.814 355.737C102.814 355.737 96.1506 354.571 92.518 349.769C86.8467 342.274 90.9868 334.81 90.9868 334.81C90.9868 334.81 91.743 333.948 94.774 334.787C97.9512 335.667 98.1893 336.924 98.1893 336.924C98.1893 336.924 96.2863 341.217 98.7136 344.461C100.913 347.4 104.949 348.242 104.949 348.242L102.814 355.737Z" stroke="black" stroke-width="1.66" stroke-miterlimit="10"/>
<path fill-rule="evenodd" clip-rule="evenodd" d="M105.406 352.436C104.796 354.498 103.627 355.973 102.795 355.728C101.964 355.484 101.78 353.612 102.377 351.551C102.975 349.489 104.157 348.012 104.991 348.257C105.824 348.501 106.006 350.373 105.396 352.434" fill="#FCEFBB"/>
<path d="M105.406 352.436C104.796 354.498 103.627 355.973 102.795 355.728C101.964 355.484 101.78 353.612 102.377 351.551C102.975 349.489 104.157 348.012 104.991 348.257C105.824 348.501 106.012 350.373 105.406 352.436Z" stroke="black" stroke-width="1.66" stroke-miterlimit="10"/>
<path fill-rule="evenodd" clip-rule="evenodd" d="M45.7731 331.857C45.7731 331.857 52.305 334.817 54.7552 340.709C58.5862 349.9 52.3572 356.468 52.3572 356.468C52.3572 356.468 51.3504 357.153 48.4635 355.488C45.4347 353.742 45.5245 352.39 45.5245 352.39C45.5245 352.39 48.616 348.488 46.9867 344.515C45.5078 340.916 41.5911 338.984 41.5911 338.984L45.7731 331.857Z" fill="#FCEFBB"/>
<path d="M45.7731 331.857C45.7731 331.857 52.305 334.817 54.7552 340.709C58.5862 349.9 52.3572 356.468 52.3572 356.468C52.3572 356.468 51.3504 357.153 48.4635 355.488C45.4347 353.742 45.5245 352.39 45.5245 352.39C45.5245 352.39 48.616 348.488 46.9867 344.515C45.5078 340.916 41.5911 338.984 41.5911 338.984L45.7731 331.857Z" stroke="black" stroke-width="1.66" stroke-miterlimit="10"/>
<path fill-rule="evenodd" clip-rule="evenodd" d="M42.2408 334.551C43.4147 332.594 45.0064 331.391 45.7919 331.863C46.5773 332.335 46.2723 334.303 45.1005 336.25C43.9286 338.196 42.3348 339.412 41.5494 338.94C40.7639 338.468 41.0689 336.498 42.2408 334.543" fill="#FCEFBB"/>
<path d="M42.2408 334.551C43.4147 332.594 45.0064 331.391 45.7919 331.863C46.5773 332.335 46.2723 334.303 45.1005 336.25C43.9286 338.196 42.3348 339.412 41.5494 338.94C40.7639 338.468 41.0689 336.506 42.2408 334.551Z" stroke="black" stroke-width="1.66" stroke-miterlimit="10"/>
<path fill-rule="evenodd" clip-rule="evenodd" d="M76.3146 343.88C76.3146 343.88 82.6272 341.457 88.2212 343.709C96.9527 347.225 97.2577 355.747 97.2577 355.747C97.2577 355.747 97.0488 356.875 94.0199 357.711C90.8427 358.588 89.9904 357.633 89.9904 357.633C89.9904 357.633 89.4035 352.975 85.6498 351.442C82.247 350.051 78.3533 351.4 78.3533 351.4L76.3146 343.88Z" fill="#FCEFBB"/>
<path d="M76.3146 343.88C76.3146 343.88 82.6272 341.457 88.2212 343.709C96.9527 347.225 97.2577 355.747 97.2577 355.747C97.2577 355.747 97.0488 356.875 94.0199 357.711C90.8427 358.588 89.9904 357.633 89.9904 357.633C89.9904 357.633 89.4035 352.975 85.6498 351.442C82.247 350.051 78.3533 351.4 78.3533 351.4L76.3146 343.88Z" stroke="black" stroke-width="1.66" stroke-miterlimit="10"/>
<path fill-rule="evenodd" clip-rule="evenodd" d="M75.8007 348.037C75.2576 345.948 75.4978 344.091 76.3396 343.874C77.1814 343.657 78.3011 345.167 78.8463 347.247C79.3915 349.328 79.1492 351.193 78.3074 351.413C77.4655 351.632 76.3459 350.12 75.8007 348.037Z" fill="#FCEFBB"/>
<path d="M75.8007 348.037C75.2576 345.948 75.4978 344.091 76.3396 343.874C77.1814 343.657 78.3011 345.167 78.8463 347.247C79.3915 349.328 79.1492 351.193 78.3074 351.413C77.4655 351.632 76.3438 350.12 75.8007 348.037Z" stroke="black" stroke-width="1.66" stroke-miterlimit="10"/>
<path fill-rule="evenodd" clip-rule="evenodd" d="M86.5814 328.253C86.5814 328.253 90.3623 322.655 96.2404 321.295C105.413 319.173 110.562 325.979 110.562 325.979C110.562 325.979 111.042 327.023 109.041 329.438C106.94 331.976 105.699 331.681 105.699 331.681C105.699 331.681 102.543 328.205 98.5841 329.097C94.9954 329.908 92.5827 333.242 92.5827 333.242L86.5814 328.253Z" fill="#FCEFBB"/>
<path d="M86.5814 328.253C86.5814 328.253 90.3623 322.655 96.2404 321.295C105.413 319.173 110.562 325.979 110.562 325.979C110.562 325.979 111.042 327.023 109.041 329.438C106.94 331.976 105.699 331.681 105.699 331.681C105.699 331.681 102.543 328.205 98.5841 329.097C94.9954 329.908 92.5827 333.242 92.5827 333.242L86.5814 328.253Z" stroke="black" stroke-width="1.66" stroke-miterlimit="10"/>
<path fill-rule="evenodd" clip-rule="evenodd" d="M88.5491 331.953C86.9094 330.559 86.0425 328.895 86.5981 328.234C87.1537 327.574 88.9481 328.17 90.59 329.563C92.2318 330.956 93.0966 332.621 92.5431 333.281C91.9895 333.941 90.191 333.346 88.5491 331.953Z" fill="#FCEFBB"/>
<path d="M88.5491 331.953C86.9094 330.559 86.0425 328.895 86.5981 328.234C87.1537 327.574 88.9481 328.17 90.59 329.563C92.2318 330.956 93.0966 332.621 92.5431 333.281C91.9895 333.941 90.191 333.346 88.5491 331.953Z" stroke="black" stroke-width="1.66" stroke-miterlimit="10"/>
<path fill-rule="evenodd" clip-rule="evenodd" d="M87.1245 333.043C87.1245 333.043 87.7721 339.757 84.0977 344.532C78.3637 351.979 70.0458 349.988 70.0458 349.988C70.0458 349.988 69.0014 349.489 69.016 346.353C69.016 343.066 70.1712 342.502 70.1712 342.502C70.1712 342.502 74.8273 343.187 77.3172 339.995C79.5732 337.098 79.3121 332.997 79.3121 332.997L87.1245 333.043Z" fill="#FCEFBB"/>
<path d="M87.1245 333.043C87.1245 333.043 87.7721 339.757 84.0977 344.532C78.3637 351.979 70.0458 349.988 70.0458 349.988C70.0458 349.988 69.0014 349.489 69.016 346.353C69.016 343.066 70.1712 342.502 70.1712 342.502C70.1712 342.502 74.8273 343.187 77.3172 339.995C79.5732 337.098 79.3121 332.997 79.3121 332.997L87.1245 333.043Z" stroke="black" stroke-width="1.66" stroke-miterlimit="10"/>
<path fill-rule="evenodd" clip-rule="evenodd" d="M83.2455 331.439C85.4012 331.474 87.1391 332.206 87.1245 333.072C87.1099 333.939 85.349 334.61 83.1932 334.574C81.0375 334.539 79.2975 333.808 79.3121 332.941C79.3267 332.074 81.0876 331.403 83.2455 331.439Z" fill="#FCEFBB"/>
<path d="M83.2455 331.439C85.4012 331.474 87.1391 332.205 87.1245 333.072C87.1099 333.939 85.349 334.61 83.1932 334.574C81.0375 334.539 79.2975 333.808 79.3121 332.941C79.3267 332.074 81.0876 331.399 83.2455 331.439Z" stroke="black" stroke-width="1.66" stroke-miterlimit="10"/>
<path fill-rule="evenodd" clip-rule="evenodd" d="M51.7765 325.92C51.7765 325.92 56.2195 320.831 62.2209 320.209C71.5853 319.238 75.8571 326.628 75.8571 326.628C75.8571 326.628 76.2059 327.718 73.9186 329.872C71.5227 332.132 70.3216 331.685 70.3216 331.685C70.3216 331.685 67.606 327.844 63.5787 328.241C59.9189 328.6 57.1031 331.612 57.1031 331.612L51.7765 325.92Z" fill="#FCEFBB"/>
<path d="M51.7765 325.92C51.7765 325.92 56.2195 320.831 62.2209 320.209C71.5853 319.238 75.8571 326.628 75.8571 326.628C75.8571 326.628 76.2059 327.718 73.9186 329.872C71.5227 332.132 70.3216 331.685 70.3216 331.685C70.3216 331.685 67.606 327.844 63.5787 328.241C59.9189 328.6 57.1031 331.612 57.1031 331.612L51.7765 325.92Z" stroke="black" stroke-width="1.66" stroke-miterlimit="10"/>
<path fill-rule="evenodd" clip-rule="evenodd" d="M53.2763 329.832C51.8141 328.247 51.1561 326.49 51.7953 325.901C52.4345 325.312 54.1369 326.129 55.595 327.714C57.053 329.3 57.7152 331.057 57.0739 331.646C56.4326 332.235 54.7322 331.42 53.2763 329.832Z" fill="#FCEFBB"/>
<path d="M53.2763 329.832C51.8141 328.247 51.1561 326.49 51.7953 325.901C52.4345 325.312 54.1369 326.129 55.595 327.714C57.053 329.3 57.7152 331.057 57.0739 331.646C56.4326 332.235 54.7322 331.42 53.2763 329.832Z" stroke="black" stroke-width="1.66" stroke-miterlimit="10"/>
<path fill-rule="evenodd" clip-rule="evenodd" d="M67.5016 331.418C67.5016 331.418 72.6632 336.158 73.1416 342.383C73.881 352.094 66.0728 356.297 66.0728 356.297C66.0728 356.297 64.926 356.627 62.7536 354.208C60.4725 351.663 60.9717 350.435 60.9717 350.435C60.9717 350.435 65.045 347.749 64.7484 343.561C64.481 339.767 61.4313 336.776 61.4313 336.776L67.5016 331.418Z" fill="#FCEFBB"/>
<path d="M67.5016 331.418C67.5016 331.418 72.6632 336.158 73.1416 342.383C73.881 352.094 66.0728 356.297 66.0728 356.297C66.0728 356.297 64.926 356.627 62.7536 354.208C60.4725 351.663 60.9717 350.435 60.9717 350.435C60.9717 350.435 65.045 347.749 64.7484 343.561C64.481 339.767 61.4313 336.776 61.4313 336.776L67.5016 331.418Z" stroke="black" stroke-width="1.66" stroke-miterlimit="10"/>
<path fill-rule="evenodd" clip-rule="evenodd" d="M63.3865 332.853C65.0785 331.391 66.9376 330.764 67.5183 331.437C68.099 332.109 67.2154 333.852 65.5234 335.312C63.8314 336.772 61.9723 337.401 61.3916 336.728C60.8109 336.055 61.6945 334.315 63.3865 332.853Z" fill="#FCEFBB"/>
<path d="M63.3865 332.853C65.0785 331.391 66.9376 330.764 67.5183 331.437C68.099 332.109 67.2154 333.852 65.5234 335.312C63.8314 336.772 61.9723 337.401 61.3916 336.728C60.8109 336.055 61.6945 334.315 63.3865 332.853Z" stroke="black" stroke-width="1.66" stroke-miterlimit="10"/>
<path fill-rule="evenodd" clip-rule="evenodd" d="M58.064 348.225C58.064 348.225 51.9666 351.638 45.9047 350.166C36.4462 347.868 34.8628 339.189 34.8628 339.189C34.8628 339.189 34.9046 338.004 37.8813 336.701C41.002 335.331 42.0173 336.183 42.0173 336.183C42.0173 336.183 43.3103 340.86 47.3815 341.873C51.0725 342.792 54.8555 340.828 54.8555 340.828L58.064 348.225Z" fill="#FCEFBB"/>
<path d="M58.064 348.225C58.064 348.225 51.9666 351.638 45.9047 350.166C36.4462 347.868 34.8628 339.189 34.8628 339.189C34.8628 339.189 34.9046 338.004 37.8813 336.701C41.002 335.331 42.0173 336.183 42.0173 336.183C42.0173 336.183 43.3103 340.86 47.3815 341.873C51.0725 342.792 54.8555 340.828 54.8555 340.828L58.064 348.225Z" stroke="black" stroke-width="1.66" stroke-miterlimit="10"/>
<path fill-rule="evenodd" clip-rule="evenodd" d="M57.97 343.893C58.8369 345.944 58.8682 347.887 58.041 348.235C57.2139 348.584 55.8394 347.204 54.9725 345.152C54.1056 343.101 54.0743 341.16 54.9035 340.812C55.7328 340.463 57.1031 341.844 57.97 343.893Z" fill="#FCEFBB"/>
<path d="M57.97 343.893C58.8369 345.944 58.8682 347.887 58.041 348.235C57.2139 348.584 55.8394 347.204 54.9725 345.152C54.1056 343.101 54.0743 341.16 54.9035 340.812C55.7328 340.463 57.1031 341.844 57.97 343.893Z" stroke="black" stroke-width="1.66" stroke-miterlimit="10"/>
<path fill-rule="evenodd" clip-rule="evenodd" d="M89.5184 356.506C89.5184 356.506 83.6194 359.808 77.758 358.386C68.6108 356.163 67.0796 347.77 67.0796 347.77C67.0796 347.77 67.1193 346.625 70.0041 345.363C73.0225 344.039 74.0043 344.862 74.0043 344.862C74.0043 344.862 75.2576 349.387 79.193 350.366C82.7608 351.254 86.4206 349.362 86.4206 349.362L89.5184 356.506Z" fill="#FCEFBB"/>
<path d="M89.5184 356.506C89.5184 356.506 83.6194 359.808 77.758 358.386C68.6108 356.163 67.0796 347.77 67.0796 347.77C67.0796 347.77 67.1193 346.625 70.0041 345.363C73.0225 344.039 74.0043 344.862 74.0043 344.862C74.0043 344.862 75.2576 349.387 79.193 350.366C82.7608 351.254 86.4206 349.362 86.4206 349.362L89.5184 356.506Z" stroke="black" stroke-width="1.66" stroke-miterlimit="10"/>
<path fill-rule="evenodd" clip-rule="evenodd" d="M89.4264 352.309C90.262 354.291 90.2954 356.171 89.4954 356.508C88.6953 356.844 87.3668 355.509 86.5292 353.527C85.6915 351.544 85.6602 349.664 86.4602 349.328C87.2603 348.992 88.5888 350.327 89.4264 352.309Z" fill="#FCEFBB"/>
<path d="M89.4264 352.309C90.262 354.291 90.2954 356.171 89.4954 356.508C88.6953 356.844 87.3668 355.509 86.5292 353.527C85.6915 351.544 85.6602 349.664 86.4602 349.328C87.2603 348.992 88.5888 350.327 89.4264 352.309Z" stroke="black" stroke-width="1.66" stroke-miterlimit="10"/>
<path d="M45.232 294.53H93.9739" stroke="black" stroke-miterlimit="10"/>
<path d="M84.7829 319.518V357.201" stroke="black" stroke-width="1.66" stroke-miterlimit="10"/>
<path fill-rule="evenodd" clip-rule="evenodd" d="M158.882 363.294H129.011C128.302 363.294 127.621 363.012 127.12 362.511C126.619 362.01 126.337 361.33 126.337 360.62V318.544C126.339 316.864 126.766 315.211 127.578 313.74L129.458 310.354C129.857 309.631 130.04 308.808 129.983 307.984C129.925 307.161 129.631 306.371 129.136 305.71C129.136 305.71 126.345 302.577 126.345 298.792V294.384C126.345 291.628 127.024 288.914 128.321 286.482L138.095 270.581L138.154 265.689L150.296 265.574L150.355 270.588L159.74 286.603C160.943 288.963 161.57 291.574 161.57 294.223V298.696C161.57 302.702 158.829 305.472 158.829 305.472C158.322 306.105 158.005 306.87 157.915 307.676C157.826 308.483 157.968 309.299 158.324 310.028L160.561 314.623C161.225 315.982 161.57 317.475 161.57 318.987V360.62C161.57 361.33 161.288 362.01 160.787 362.511C160.286 363.012 159.605 363.294 158.896 363.294" fill="#FFF0D2"/>
<path d="M158.882 363.294H129.011C128.302 363.294 127.621 363.013 127.12 362.511C126.619 362.01 126.337 361.33 126.337 360.62V318.544C126.339 316.864 126.766 315.211 127.578 313.74L129.458 310.354C129.857 309.631 130.04 308.808 129.983 307.984C129.925 307.161 129.631 306.371 129.136 305.71C129.136 305.71 126.345 302.577 126.345 298.792V294.384C126.345 291.628 127.024 288.914 128.321 286.482L138.095 270.581L138.154 265.689L150.296 265.574L150.355 270.588L159.74 286.603C160.943 288.963 161.57 291.574 161.57 294.223V298.696C161.57 302.702 158.829 305.472 158.829 305.472C158.322 306.105 158.005 306.87 157.915 307.676C157.826 308.483 157.968 309.299 158.324 310.028L160.561 314.623C161.225 315.982 161.57 317.475 161.57 318.987V360.62C161.57 360.973 161.5 361.322 161.365 361.647C161.23 361.972 161.032 362.268 160.782 362.516C160.532 362.765 160.235 362.961 159.909 363.095C159.583 363.228 159.234 363.296 158.882 363.294V363.294Z" stroke="black" stroke-miterlimit="10"/>
<path fill-rule="evenodd" clip-rule="evenodd" d="M153.937 360.712C150.075 360.712 150.386 358.995 144.166 358.995C137.719 358.995 137.329 360.712 133.955 360.712C130.582 360.712 129.032 358.312 129.032 355.352V319.476C129.032 317.433 129.508 315.904 130.414 314.116L131.668 311.647C132.886 308.885 132.253 305.675 131.394 304.432C129.868 302.656 129.03 300.392 129.032 298.05V295.126C129.026 292.6 129.598 290.107 130.703 287.836L133.648 282.712H154.215L157.309 287.934C158.332 290.135 158.861 292.533 158.859 294.961V297.954C158.859 301.526 156.538 304.204 156.538 304.204C155.059 306.199 154.982 308.8 156.108 311.34L157.735 314.972C158.474 316.62 158.859 317.951 158.859 319.787V355.352C158.859 358.312 157.798 360.712 153.933 360.712" fill="#FFE6A5"/>
<path d="M153.937 360.712C150.075 360.712 150.386 358.995 144.166 358.995C137.719 358.995 137.329 360.712 133.955 360.712C130.582 360.712 129.032 358.312 129.032 355.352V319.476C129.032 317.433 129.508 315.904 130.414 314.116L131.668 311.647C132.886 308.885 132.253 305.675 131.394 304.432C129.868 302.656 129.03 300.392 129.032 298.05V295.126C129.026 292.6 129.598 290.107 130.703 287.836L133.648 282.712H154.215L157.309 287.934C158.332 290.135 158.861 292.533 158.859 294.961V297.954C158.859 301.526 156.538 304.204 156.538 304.204C155.059 306.199 154.982 308.8 156.108 311.34L157.735 314.972C158.474 316.62 158.859 317.951 158.859 319.787V355.352C158.863 358.312 157.802 360.712 153.937 360.712Z" stroke="black" stroke-miterlimit="10"/>
<path fill-rule="evenodd" clip-rule="evenodd" d="M150.689 268.672H137.575V259.393C137.575 259.29 137.616 259.19 137.69 259.117C137.763 259.044 137.862 259.003 137.966 259.003H150.307C150.41 259.003 150.51 259.044 150.583 259.117C150.656 259.19 150.697 259.29 150.697 259.393L150.689 268.672Z" fill="#5FAF2D"/>
<path d="M150.689 268.672H137.575V259.393C137.575 259.29 137.616 259.19 137.69 259.117C137.763 259.044 137.862 259.003 137.966 259.003H150.307C150.41 259.003 150.51 259.044 150.583 259.117C150.656 259.19 150.697 259.29 150.697 259.393L150.689 268.672Z" stroke="black" stroke-miterlimit="10"/>
<path d="M161.62 321.187H126.287V352.585H161.62V321.187Z" fill="#5FAF2D"/>
<path d="M161.62 321.187H126.287V352.585H161.62V321.187Z" stroke="black" stroke-width="1.66" stroke-miterlimit="10"/>
<path d="M137.797 308.041H156.444" stroke="black" stroke-miterlimit="10"/>
<path d="M48.9785 331.78L24.2425 338.155L29.7534 359.538L54.4895 353.162L48.9785 331.78Z" fill="#5FAF2D"/>
<path d="M48.9785 331.78L24.2425 338.155L29.7534 359.538L54.4895 353.162L48.9785 331.78Z" stroke="black" stroke-width="1.66282" stroke-miterlimit="10"/>
<path fill-rule="evenodd" clip-rule="evenodd" d="M29.4902 358.172L29.0119 364.447L57.6483 356.948L54.1599 351.714L29.4902 358.172Z" fill="#5FAF2D"/>
<path d="M29.4902 358.172L29.0119 364.447L57.6483 356.948L54.1599 351.714L29.4902 358.172Z" stroke="black" stroke-width="1.66" stroke-miterlimit="10"/>
<path fill-rule="evenodd" clip-rule="evenodd" d="M96.9339 348.898H131.1C133.268 348.898 135.027 346.631 135.027 343.832V292.087C135.027 289.808 135.027 287.654 133.076 284.694L126.086 275.906V270.513H90.0928V275.858L92.4762 284.982C93.199 287.654 93.0047 289.519 93.0047 291.97V343.832C93.0047 346.631 94.7635 348.898 96.9339 348.898Z" fill="#D2D7DC"/>
<path d="M96.9339 348.898H131.1C133.268 348.898 135.027 346.631 135.027 343.832V292.087C135.027 289.808 135.027 287.654 133.076 284.694L126.086 275.906V270.513H90.0928V275.858L92.4762 284.982C93.199 287.654 93.0047 289.519 93.0047 291.97V343.832C93.0047 346.631 94.7635 348.898 96.9339 348.898Z" stroke="black" stroke-miterlimit="10"/>
<path fill-rule="evenodd" clip-rule="evenodd" d="M117.681 348.898H83.5254C81.355 348.898 79.5983 346.631 79.5983 343.832V292.087C79.5983 289.808 79.5983 287.654 81.5472 284.694L88.5345 275.906V270.513H124.52V275.858L122.136 284.982C121.413 287.654 121.608 289.519 121.608 291.97V343.832C121.608 346.631 119.849 348.898 117.681 348.898Z" fill="#D2D7DC"/>
<path d="M117.681 348.898H83.5254C81.355 348.898 79.5983 346.631 79.5983 343.832V292.087C79.5983 289.808 79.5983 287.654 81.5472 284.694L88.5345 275.906V270.513H124.52V275.858L122.136 284.982C121.413 287.654 121.608 289.519 121.608 291.97V343.832C121.608 346.631 119.849 348.898 117.681 348.898Z" stroke="black" stroke-miterlimit="10"/>
<path d="M89.1779 275.762H125.963" stroke="black" stroke-miterlimit="10"/>
<path fill-rule="evenodd" clip-rule="evenodd" d="M113.687 333.11H86.2889V300.173H90.0072C90.0072 300.173 92.2611 294.228 99.5909 294.228C107.234 294.228 109.363 300.173 109.363 300.173H113.687V333.11Z" fill="#AAD296"/>
<path d="M113.687 333.11H86.2889V300.173H90.0072C90.0072 300.173 92.2611 294.228 99.5909 294.228C107.234 294.228 109.363 300.173 109.363 300.173H113.687V333.11Z" stroke="black" stroke-miterlimit="10"/>
<path fill-rule="evenodd" clip-rule="evenodd" d="M96.7125 318.314C99.4761 321.078 99.8458 325.183 99.8458 325.183C99.8458 325.183 95.7432 324.807 92.9775 322.049C90.2119 319.292 89.8442 315.179 89.8442 315.179C89.8442 315.179 93.9489 315.557 96.7125 318.312" fill="white"/>
<path d="M96.7125 318.314C99.4761 321.078 99.8458 325.183 99.8458 325.183C99.8458 325.183 95.7432 324.807 92.9775 322.049C90.2119 319.292 89.8442 315.179 89.8442 315.179C89.8442 315.179 93.9489 315.551 96.7125 318.314Z" stroke="#1D1E1C" stroke-miterlimit="10"/>
<path fill-rule="evenodd" clip-rule="evenodd" d="M96.7125 325.03C99.4761 327.796 99.8458 331.9 99.8458 331.9C99.8458 331.9 95.7432 331.522 92.9775 328.767C90.2119 326.012 89.8442 321.899 89.8442 321.899C89.8442 321.899 93.9489 322.275 96.7125 325.032" fill="white"/>
<path d="M96.7125 325.03C99.4761 327.796 99.8458 331.9 99.8458 331.9C99.8458 331.9 95.7432 331.522 92.9775 328.767C90.2119 326.012 89.8442 321.899 89.8442 321.899C89.8442 321.899 93.9489 322.267 96.7125 325.03Z" stroke="#1D1E1C" stroke-width="1.66" stroke-miterlimit="10"/>
<path fill-rule="evenodd" clip-rule="evenodd" d="M96.7125 311.595C99.4761 314.358 99.8458 318.463 99.8458 318.463C99.8458 318.463 95.7432 318.085 92.9775 315.329C90.2119 312.574 89.8442 308.461 89.8442 308.461C89.8442 308.461 93.9489 308.837 96.7125 311.595Z" fill="white"/>
<path d="M96.7125 311.595C99.4761 314.358 99.8458 318.463 99.8458 318.463C99.8458 318.463 95.7432 318.085 92.9775 315.329C90.2119 312.574 89.8442 308.461 89.8442 308.461C89.8442 308.461 93.9489 308.833 96.7125 311.595Z" stroke="#1D1E1C" stroke-miterlimit="10"/>
<path fill-rule="evenodd" clip-rule="evenodd" d="M103.023 318.314C100.259 321.078 99.8896 325.183 99.8896 325.183C99.8896 325.183 103.994 324.807 106.758 322.049C109.521 319.292 109.891 315.179 109.891 315.179C109.891 315.179 105.787 315.557 103.023 318.312" fill="white"/>
<path d="M103.023 318.314C100.259 321.078 99.8896 325.183 99.8896 325.183C99.8896 325.183 103.994 324.807 106.758 322.049C109.521 319.292 109.891 315.179 109.891 315.179C109.891 315.179 105.787 315.551 103.023 318.314Z" stroke="#1D1E1C" stroke-width="1.66" stroke-miterlimit="10"/>
<path fill-rule="evenodd" clip-rule="evenodd" d="M103.023 325.03C100.259 327.796 99.8896 331.9 99.8896 331.9C99.8896 331.9 103.994 331.522 106.758 328.767C109.521 326.012 109.891 321.899 109.891 321.899C109.891 321.899 105.787 322.275 103.023 325.032" fill="white"/>
<path d="M103.023 325.03C100.259 327.796 99.8896 331.9 99.8896 331.9C99.8896 331.9 103.994 331.522 106.758 328.767C109.521 326.012 109.891 321.899 109.891 321.899C109.891 321.899 105.787 322.267 103.023 325.03Z" stroke="#1D1E1C" stroke-width="1.66" stroke-miterlimit="10"/>
<path fill-rule="evenodd" clip-rule="evenodd" d="M103.023 311.595C100.259 314.358 99.8896 318.463 99.8896 318.463C99.8896 318.463 103.994 318.085 106.758 315.329C109.521 312.574 109.891 308.461 109.891 308.461C109.891 308.461 105.787 308.837 103.023 311.595Z" fill="white"/>
<path d="M103.023 311.595C100.259 314.358 99.8896 318.463 99.8896 318.463C99.8896 318.463 103.994 318.085 106.758 315.329C109.521 312.574 109.891 308.461 109.891 308.461C109.891 308.461 105.787 308.833 103.023 311.595Z" stroke="#1D1E1C" stroke-miterlimit="10"/>
<path fill-rule="evenodd" clip-rule="evenodd" d="M97.195 306.6C97.195 310.51 99.8312 313.679 99.8312 313.679C99.8312 313.679 102.467 310.51 102.467 306.6C102.467 302.69 99.8312 299.523 99.8312 299.523C99.8312 299.523 97.195 302.692 97.195 306.6Z" fill="white"/>
<path d="M97.195 306.6C97.195 310.51 99.8312 313.679 99.8312 313.679C99.8312 313.679 102.467 310.51 102.467 306.6C102.467 302.69 99.8312 299.523 99.8312 299.523C99.8312 299.523 97.195 302.692 97.195 306.6Z" stroke="#1D1E1C" stroke-miterlimit="10"/>
<path d="M99.7956 332.962V313.389" stroke="#1D1E1C" stroke-width="1.66" stroke-miterlimit="10"/>
<path fill-rule="evenodd" clip-rule="evenodd" d="M165.696 325.222H15.2963C11.9081 325.222 9.12991 328.101 9.09023 331.654L27.5162 406.833C27.4974 409.686 29.5445 412.003 32.0909 412.003H149.666C152.21 412.003 154.228 409.686 154.169 406.833L171.987 331.648C171.902 328.097 169.084 325.216 165.696 325.216" fill="#5FAF2D"/>
<path d="M165.696 325.222H15.2963C11.9081 325.222 9.12991 328.101 9.09023 331.654L27.5162 406.833C27.4974 409.686 29.5445 412.003 32.0909 412.003H149.666C152.21 412.003 154.228 409.686 154.169 406.833L171.987 331.648C171.902 328.097 169.084 325.222 165.696 325.222Z" stroke="#1D1E1C" stroke-miterlimit="10"/>
<path fill-rule="evenodd" clip-rule="evenodd" d="M169.754 340.966H11.1144L9.04219 331.669L172.046 331.8L169.754 340.966Z" fill="#1D1E1C"/>
<path fill-rule="evenodd" clip-rule="evenodd" d="M179.334 335.855H1.752C1.55256 335.855 1.36129 335.775 1.22026 335.634C1.07923 335.493 1 335.302 1 335.103V321.903C1.00055 321.704 1.08002 321.513 1.22099 321.373C1.36195 321.232 1.55292 321.153 1.752 321.153H179.334C179.533 321.153 179.724 321.232 179.865 321.373C180.006 321.513 180.085 321.704 180.086 321.903V335.103C180.086 335.302 180.007 335.493 179.866 335.634C179.725 335.775 179.533 335.855 179.334 335.855Z" fill="#5FAF2D"/>
<path d="M179.334 321.153H1.752C1.33669 321.153 1 321.49 1 321.905V335.105C1 335.52 1.33669 335.857 1.752 335.857H179.334C179.749 335.857 180.086 335.52 180.086 335.105V321.905C180.086 321.49 179.749 321.153 179.334 321.153Z" stroke="#1D1E1C" stroke-miterlimit="10"/>
<path fill-rule="evenodd" clip-rule="evenodd" d="M35.22 352.762H31.2052C29.8788 352.762 28.8009 352.915 28.8009 353.105V361.251C28.8009 361.439 29.8788 361.592 31.2052 361.592H35.22C36.5465 361.592 37.6222 361.439 37.6222 361.251V353.105C37.6222 352.915 36.5465 352.762 35.22 352.762Z" fill="#103E1E"/>
<path d="M35.22 352.762H31.2052C29.8788 352.762 28.8009 352.915 28.8009 353.105V361.251C28.8009 361.439 29.8788 361.592 31.2052 361.592H35.22C36.5465 361.592 37.6222 361.439 37.6222 361.251V353.105C37.6243 352.915 36.5486 352.762 35.22 352.762Z" stroke="#1D1E1C" stroke-miterlimit="10"/>
<path fill-rule="evenodd" clip-rule="evenodd" d="M52.9755 352.762H48.9607C47.6342 352.762 46.5564 352.915 46.5564 353.105V361.251C46.5564 361.439 47.6342 361.592 48.9607 361.592H52.9755C54.3019 361.592 55.3777 361.439 55.3777 361.251V353.105C55.3777 352.915 54.3019 352.762 52.9755 352.762Z" fill="#103E1E"/>
<path d="M52.9755 352.762H48.9607C47.6342 352.762 46.5564 352.915 46.5564 353.105V361.251C46.5564 361.439 47.6342 361.592 48.9607 361.592H52.9755C54.3019 361.592 55.3777 361.439 55.3777 361.251V353.105C55.3861 352.915 54.3103 352.762 52.9755 352.762Z" stroke="#1D1E1C" stroke-miterlimit="10"/>
<path fill-rule="evenodd" clip-rule="evenodd" d="M35.22 370.524H31.2052C29.8788 370.524 28.8009 370.676 28.8009 370.866V379.013C28.8009 379.201 29.8788 379.354 31.2052 379.354H35.22C36.5465 379.354 37.6222 379.201 37.6222 379.013V370.866C37.6222 370.676 36.5465 370.524 35.22 370.524Z" fill="#103E1E"/>
<path d="M35.22 370.524H31.2052C29.8788 370.524 28.8009 370.676 28.8009 370.866V379.013C28.8009 379.201 29.8788 379.354 31.2052 379.354H35.22C36.5465 379.354 37.6222 379.201 37.6222 379.013V370.866C37.6243 370.676 36.5486 370.524 35.22 370.524Z" stroke="#1D1E1C" stroke-miterlimit="10"/>
<path fill-rule="evenodd" clip-rule="evenodd" d="M52.9755 370.524H48.9607C47.6342 370.524 46.5564 370.676 46.5564 370.866V379.013C46.5564 379.201 47.6342 379.354 48.9607 379.354H52.9755C54.3019 379.354 55.3777 379.201 55.3777 379.013V370.866C55.3777 370.676 54.3019 370.524 52.9755 370.524Z" fill="#103E1E"/>
<path d="M52.9755 370.524H48.9607C47.6342 370.524 46.5564 370.676 46.5564 370.866V379.013C46.5564 379.201 47.6342 379.354 48.9607 379.354H52.9755C54.3019 379.354 55.3777 379.201 55.3777 379.013V370.866C55.3861 370.676 54.3103 370.524 52.9755 370.524Z" stroke="#1D1E1C" stroke-miterlimit="10"/>
<path fill-rule="evenodd" clip-rule="evenodd" d="M52.9755 388.396H48.9607C47.6342 388.396 46.5564 388.549 46.5564 388.737V396.883C46.5564 397.071 47.6342 397.226 48.9607 397.226H52.9755C54.3019 397.226 55.3777 397.071 55.3777 396.883V388.737C55.3777 388.549 54.3019 388.396 52.9755 388.396Z" fill="#103E1E"/>
<path d="M52.9755 388.396H48.9607C47.6342 388.396 46.5564 388.549 46.5564 388.737V396.883C46.5564 397.071 47.6342 397.226 48.9607 397.226H52.9755C54.3019 397.226 55.3777 397.071 55.3777 396.883V388.737C55.3861 388.549 54.3103 388.396 52.9755 388.396Z" stroke="#1D1E1C" stroke-miterlimit="10"/>
<path fill-rule="evenodd" clip-rule="evenodd" d="M145.866 352.762H149.881C151.207 352.762 152.283 352.915 152.283 353.105V361.251C152.283 361.439 151.207 361.592 149.881 361.592H145.866C144.539 361.592 143.464 361.439 143.464 361.251V353.105C143.464 352.915 144.539 352.762 145.866 352.762Z" fill="#103E1E"/>
<path d="M145.866 352.762H149.881C151.207 352.762 152.283 352.915 152.283 353.105V361.251C152.283 361.439 151.207 361.592 149.881 361.592H145.866C144.539 361.592 143.464 361.439 143.464 361.251V353.105C143.464 352.915 144.539 352.762 145.866 352.762Z" stroke="#1D1E1C" stroke-miterlimit="10"/>
<path fill-rule="evenodd" clip-rule="evenodd" d="M128.104 352.762H132.119C133.445 352.762 134.521 352.915 134.521 353.105V361.251C134.521 361.439 133.445 361.592 132.119 361.592H128.104C126.778 361.592 125.702 361.439 125.702 361.251V353.105C125.702 352.915 126.778 352.762 128.104 352.762Z" fill="#103E1E"/>
<path d="M128.104 352.762H132.119C133.445 352.762 134.521 352.915 134.521 353.105V361.251C134.521 361.439 133.445 361.592 132.119 361.592H128.104C126.778 361.592 125.702 361.439 125.702 361.251V353.105C125.702 352.915 126.778 352.762 128.104 352.762Z" stroke="#1D1E1C" stroke-miterlimit="10"/>
<path fill-rule="evenodd" clip-rule="evenodd" d="M145.866 370.524H149.881C151.207 370.524 152.283 370.676 152.283 370.866V379.013C152.283 379.201 151.207 379.354 149.881 379.354H145.866C144.539 379.354 143.464 379.201 143.464 379.013V370.866C143.464 370.676 144.539 370.524 145.866 370.524Z" fill="#103E1E"/>
<path d="M145.866 370.524H149.881C151.207 370.524 152.283 370.676 152.283 370.866V379.013C152.283 379.201 151.207 379.354 149.881 379.354H145.866C144.539 379.354 143.464 379.201 143.464 379.013V370.866C143.464 370.676 144.539 370.524 145.866 370.524Z" stroke="#1D1E1C" stroke-miterlimit="10"/>
<path fill-rule="evenodd" clip-rule="evenodd" d="M128.104 370.524H132.119C133.445 370.524 134.521 370.676 134.521 370.866V379.013C134.521 379.201 133.445 379.354 132.119 379.354H128.104C126.778 379.354 125.702 379.201 125.702 379.013V370.866C125.702 370.676 126.778 370.524 128.104 370.524Z" fill="#103E1E"/>
<path d="M128.104 370.524H132.119C133.445 370.524 134.521 370.676 134.521 370.866V379.013C134.521 379.201 133.445 379.354 132.119 379.354H128.104C126.778 379.354 125.702 379.201 125.702 379.013V370.866C125.702 370.676 126.778 370.524 128.104 370.524Z" stroke="#1D1E1C" stroke-miterlimit="10"/>
<path fill-rule="evenodd" clip-rule="evenodd" d="M128.104 388.396H132.119C133.445 388.396 134.521 388.549 134.521 388.737V396.883C134.521 397.071 133.445 397.226 132.119 397.226H128.104C126.778 397.226 125.702 397.071 125.702 396.883V388.737C125.702 388.549 126.778 388.396 128.104 388.396Z" fill="#103E1E"/>
<path d="M128.104 388.396H132.119C133.445 388.396 134.521 388.549 134.521 388.737V396.883C134.521 397.071 133.445 397.226 132.119 397.226H128.104C126.778 397.226 125.702 397.071 125.702 396.883V388.737C125.702 388.549 126.778 388.396 128.104 388.396Z" stroke="#1D1E1C" stroke-miterlimit="10"/>
<path fill-rule="evenodd" clip-rule="evenodd" d="M102.62 356.297C100.188 356.296 97.7965 356.925 95.6801 358.124C93.5637 359.322 91.7941 361.049 90.544 363.135C88.9601 360.495 86.5541 358.446 83.6946 357.303C80.8351 356.16 77.6797 355.986 74.7118 356.807C71.744 357.629 69.1272 359.4 67.2624 361.851C65.3976 364.302 64.3876 367.296 64.387 370.376C64.387 378.152 73.0475 389.815 90.544 397.83C110.52 390.015 116.701 378.152 116.701 370.376C116.7 366.641 115.217 363.06 112.576 360.42C109.935 357.78 106.354 356.297 102.62 356.297Z" fill="#FA9B7D"/>
<path d="M102.62 356.297C100.188 356.296 97.7965 356.925 95.6801 358.124C93.5637 359.322 91.7941 361.049 90.544 363.135C88.9601 360.495 86.5541 358.446 83.6946 357.303C80.8351 356.16 77.6797 355.986 74.7118 356.807C71.744 357.629 69.1272 359.4 67.2624 361.851C65.3976 364.302 64.3876 367.296 64.387 370.376C64.387 378.152 73.0475 389.815 90.544 397.83C110.52 390.015 116.701 378.152 116.701 370.376C116.7 366.641 115.217 363.06 112.576 360.42C109.935 357.78 106.354 356.297 102.62 356.297V356.297Z" stroke="#1D1E1C" stroke-miterlimit="10"/>
<path d="M133.784 239.565C132.948 239.578 118.534 238.642 118.534 238.642L93.7787 235.387C87.7041 234.403 85.2055 237.421 84.0015 239.289L74.9515 253.32C73.9956 254.802 73.5488 256.475 74.8035 257.755L78.4762 261.038C78.9054 261.465 79.4185 261.801 79.9841 262.026C80.5498 262.252 81.1561 262.36 81.7661 262.347L95.2296 262.139L96.0144 258.782C96.0144 258.782 92.2629 256.159 87.844 256.766C87.2495 255.823 86.4552 255.019 85.5156 254.408C85.1144 254.153 85.2573 253.185 85.666 253.445C86.9047 254.233 89.0345 254.295 90.6942 253.629C91.2699 253.399 92.2156 252.684 92.405 253.231C92.765 254.273 93.53 255.601 95.1341 256.011L122.258 258.024L134.127 261.539" fill="white"/>
<path d="M133.784 239.565C132.948 239.578 118.534 238.642 118.534 238.642L93.7787 235.387C87.7041 234.403 85.2055 237.421 84.0015 239.289L74.9515 253.32C73.9956 254.802 73.5488 256.475 74.8035 257.755L78.4762 261.038C78.9054 261.465 79.4185 261.801 79.9841 262.026C80.5498 262.252 81.1561 262.36 81.7661 262.347L95.2296 262.139L96.0144 258.782C96.0144 258.782 92.2629 256.159 87.844 256.766C87.2495 255.823 86.4552 255.019 85.5156 254.408C85.1144 254.153 85.2573 253.185 85.666 253.445C86.9047 254.233 89.0345 254.295 90.6942 253.629C91.2699 253.399 92.2156 252.684 92.4049 253.231C92.765 254.273 93.53 255.601 95.1341 256.011L122.258 258.024L134.127 261.539" stroke="black" stroke-miterlimit="10"/>
<path fill-rule="evenodd" clip-rule="evenodd" d="M244.389 82.1146C244.389 82.1146 233.368 80.5029 227.664 80.3267C210.578 79.823 188.561 83.4073 179.002 99.8347C166.519 121.273 189.788 135.686 185.831 162.791C182.815 183.466 200.044 197.031 196.575 206.29C193.215 215.322 167.392 201.799 144.569 228.878C136.807 238.112 123.408 238.884 123.408 238.884L126.474 262.774C132.77 262.625 139.054 263.385 145.132 265.032C162.277 270.027 170.215 274.022 189.779 273.535C213.527 272.939 228.79 260.516 239.534 240.177C244.188 231.371 247.094 216.287 249.707 198.382C257.62 143.585 244.305 113.039 237.4 99.9606C230.495 86.8825 244.389 82.1146 244.389 82.1146Z" fill="#FFEFCD" stroke="black" stroke-miterlimit="10"/>
<path fill-rule="evenodd" clip-rule="evenodd" d="M217.802 487.621L210.906 523.287H174.079C174.079 523.287 173.096 515.472 185.881 510.881C195.122 507.523 195.558 487.948 195.558 487.948L217.802 487.621Z" fill="#61AF37" stroke="#1D1D1B" stroke-miterlimit="10"/>
<path fill-rule="evenodd" clip-rule="evenodd" d="M338.145 486.235L335.541 523.287H298.714C298.714 523.287 297.731 515.472 310.516 510.881C319.757 507.523 312.919 487.931 312.919 487.931L338.145 486.235Z" fill="#61AF37" stroke="#1D1D1B" stroke-miterlimit="10"/>
<path fill-rule="evenodd" clip-rule="evenodd" d="M230.226 224.631C230.226 224.631 217.324 276.121 201.397 358.098C196.356 384.028 194.609 494.923 194.609 494.923L218.273 494.604C218.273 494.604 228.723 470.261 239.576 438.834C249.119 411.175 241.953 396.376 250.152 380.964C258.552 365.158 270.926 343.677 281.527 300.892C293.355 253.138 291.213 239.808 291.213 239.808L230.336 208.682L230.226 224.631Z" fill="#373D4E" stroke="#1D1D1B" stroke-miterlimit="10"/>
<path fill-rule="evenodd" clip-rule="evenodd" d="M251.051 265.595L283.4 305.778L289.281 271.907L251.051 265.595Z" fill="black"/>
<path fill-rule="evenodd" clip-rule="evenodd" d="M236.182 207.264L325.637 202.177L332.844 209.807C332.844 209.807 342.177 233.109 349.385 265.729C354.215 287.604 353.173 286.63 350.225 314.868C345.983 355.538 326.519 382.156 337.078 400.447C342.799 410.352 346.579 424.505 345.185 442.947C342.866 473.418 339.195 497.148 339.195 497.148L314.607 497.467C314.607 497.467 284.954 409.555 283.358 372.117C280.704 309.79 278.159 288.603 278.159 288.603C278.159 288.603 265.306 283.097 254.277 280.368" fill="#373D4E"/>
<path d="M236.182 207.264L325.637 202.177L332.844 209.807C332.844 209.807 342.177 233.109 349.385 265.729C354.215 287.604 353.173 286.63 350.225 314.868C345.983 355.538 326.519 382.156 337.078 400.447C342.799 410.352 346.579 424.505 345.185 442.947C342.866 473.418 339.195 497.148 339.195 497.148L314.607 497.467C314.607 497.467 284.954 409.555 283.358 372.117C280.704 309.79 278.159 288.603 278.159 288.603C278.159 288.603 265.306 283.097 254.277 280.368" stroke="#1D1D1B" stroke-miterlimit="10"/>
<path fill-rule="evenodd" clip-rule="evenodd" d="M227.001 73.4939C228.278 63.5048 217.92 60.0044 213.014 59.4085C208.108 58.8125 205.252 59.3245 207.033 49.8139C209.049 39.0778 208.419 21.0723 212.023 16.4051C218.785 7.65836 228.975 10.9153 228.975 10.9153L244.507 24.0606C244.507 24.0606 234.082 64.6968 277.747 72.4027C301.772 76.5997 305.468 76.5997 305.468 76.5997C306.627 82.6519 328.485 101.682 275.168 102.496C222.053 103.335 213.913 84.1965 213.913 84.1965C213.913 84.1965 225.791 82.8954 227.001 73.4939Z" fill="white" stroke="#1D1D1B" stroke-miterlimit="10"/>
<path fill-rule="evenodd" clip-rule="evenodd" d="M223.557 79.8315C230.445 82.3558 237.725 83.6432 245.061 83.634C259.387 83.599 273.512 80.2762 286.349 73.922C286.349 73.922 319.11 67.7942 331.106 89.9297C344.874 115.28 362.766 165.628 345.269 194.311C341.396 200.649 357.34 214.457 334.945 214.457H310.71C275.596 214.457 268.607 214.172 242.911 214.172C202.052 214.172 205.95 178.782 212.964 150.376C216.761 134.981 205.126 115.171 207.31 96.7122C209.167 81.1074 223.557 79.8315 223.557 79.8315Z" fill="#FFEFCD" stroke="black" stroke-miterlimit="10"/>
<path fill-rule="evenodd" clip-rule="evenodd" d="M346.991 208.816C346.991 208.816 333.071 199.004 326.074 186.505C317.757 171.647 321.874 150.074 296.824 128.887C293.464 126.075 302.587 117.446 306.316 128.257C309.055 136.198 307.064 121.055 309.114 121.265C310.621 121.584 312.071 122.13 313.415 122.885L349.964 149.956L353.324 160.239C353.324 160.239 353.182 179.722 347.243 191.592C343.303 199.499 348.108 204.158 346.991 208.816Z" fill="black" stroke="black" stroke-miterlimit="10"/>
<path fill-rule="evenodd" clip-rule="evenodd" d="M300.47 248.151C300.47 248.151 290.297 253.943 289.86 254.363C289.423 254.783 283.98 261.078 283.98 261.078L280.175 262.153C280.175 262.153 276.294 261.011 278.78 257.544C281.267 254.078 284.736 246.875 287.928 245.18C291.12 243.484 294.606 242.41 299.042 241.134C303.477 239.858 310.651 239.631 313.465 239.522C316.279 239.413 326.687 240.958 326.687 240.958L336.07 238.087L346.99 253.683C346.99 253.683 332.895 262.447 330.862 263.58C326.536 265.989 323.108 264.646 320.706 264.226C318.303 263.807 305.014 259.954 304.535 259.777C304.057 259.601 298.361 255.521 298.361 255.521L299.1 252.491L300.47 248.151Z" fill="white" stroke="#1D1D1B" stroke-miterlimit="10"/>
<path fill-rule="evenodd" clip-rule="evenodd" d="M302.309 253.389C302.309 253.389 295.833 255.404 292.783 256.512C289.734 257.62 284.82 264.73 283.644 265.603C280.284 268.121 278.007 266.745 277.36 264.881C276.831 263.379 279.133 261.935 281.485 257.142C283.409 253.23 287.365 250.796 290.583 248.924C293.8 247.052 301.856 244.995 303.721 244.576" fill="white"/>
<path d="M302.309 253.389C302.309 253.389 295.833 255.404 292.783 256.512C289.734 257.62 284.82 264.73 283.644 265.603C280.284 268.121 278.007 266.745 277.36 264.881C276.831 263.379 279.133 261.935 281.485 257.142C283.409 253.23 287.365 250.796 290.583 248.924C293.8 247.052 301.856 244.995 303.721 244.576" stroke="#1D1D1B" stroke-miterlimit="10"/>
<path fill-rule="evenodd" clip-rule="evenodd" d="M302.763 259.685C302.763 259.685 300.436 259.064 296.622 263.521C292.809 267.978 289.566 271.915 286.433 272.369C283.913 272.713 280.721 270.69 283.711 267.139C286.702 263.588 289.532 257.822 291.616 255.656C294.077 253.137 297.237 251.412 300.688 250.703C304.527 249.864 306.232 249.713 306.232 249.713" fill="white"/>
<path d="M302.763 259.685C302.763 259.685 300.436 259.064 296.622 263.521C292.809 267.978 289.566 271.915 286.433 272.369C283.913 272.713 280.721 270.69 283.711 267.139C286.702 263.588 289.532 257.822 291.616 255.656C294.077 253.137 297.237 251.412 300.688 250.703C304.527 249.864 306.232 249.713 306.232 249.713" stroke="#1D1D1B" stroke-miterlimit="10"/>
<path fill-rule="evenodd" clip-rule="evenodd" d="M329.98 264.059C329.98 264.059 322.42 267.878 317.086 265.947C313.902 264.794 310.625 263.918 307.291 263.328C307.291 263.328 304.51 272.486 300.965 274.937C297.605 277.288 293.464 274.988 296.244 269.338C298.47 264.806 297.74 260.407 301.15 258.208C302.996 256.939 305.13 256.151 307.358 255.916" fill="white"/>
<path d="M329.98 264.059C329.98 264.059 322.42 267.878 317.086 265.947C313.902 264.794 310.625 263.918 307.291 263.328C307.291 263.328 304.51 272.486 300.965 274.937C297.605 277.288 293.464 274.988 296.244 269.338C298.47 264.806 297.74 260.407 301.15 258.208C302.996 256.939 305.13 256.151 307.358 255.916" stroke="#1D1D1B" stroke-miterlimit="10"/>
<path fill-rule="evenodd" clip-rule="evenodd" d="M290.977 126.083C301.99 143.762 317.346 140.186 328.636 157.05C344.538 180.797 366.807 190.828 368.957 193.287C378.55 204.443 368.688 181.535 362.296 207.347C345.831 218.864 336.07 238.087 336.07 238.087L346.991 253.683C371.662 247.631 395.805 265.813 417.309 243.434C425.458 231.8 450.759 235.325 452.641 222.658C455.018 206.76 457.286 189.342 443.804 164.302C435.689 149.193 419.292 142.754 414.201 134.536C398.409 109.035 382.28 104.989 368.226 97.8874C352.434 89.9129 345.806 75.2231 320.933 72.4027C297.11 69.7165 272.32 96.1498 290.977 126.083Z" fill="#FFEFCD" stroke="black" stroke-miterlimit="10"/>
<path fill-rule="evenodd" clip-rule="evenodd" d="M227.278 12.9131H221.347C216.836 12.9131 213.712 12.2751 220.717 8.4222C231.067 2.70577 260.14 8.14519 248.27 30.5996C246.138 34.5287 244.67 38.7832 243.927 43.1909C243.927 43.1909 237.669 39.3464 238.308 32.8912C238.82 27.6281 234.343 26.9314 231.512 28.7949C228.681 30.6584 228.278 34.9646 226.22 34.7967C224.162 34.6288 224.674 29.6511 224.951 23.3554C225.07 19.7604 225.86 16.2191 227.278 12.9131Z" fill="#F39F79" stroke="black" stroke-miterlimit="10"/>
<path fill-rule="evenodd" clip-rule="evenodd" d="M209.226 28.8284C209.226 28.8284 209.495 31.3466 204.328 35.7032C202.514 37.2393 201.43 38.1795 202.396 39.5729C203.362 40.9664 209.049 40.4123 209.049 40.4123" fill="white"/>
<path d="M209.226 28.8284C209.226 28.8284 209.495 31.3466 204.328 35.7032C202.514 37.2393 201.43 38.1795 202.396 39.5729C203.362 40.9664 209.049 40.4123 209.049 40.4123" stroke="#1D1D1B" stroke-miterlimit="10"/>
<path d="M214.56 46.2799C213.989 47.235 213.183 48.0281 212.218 48.5835C211.254 49.139 210.163 49.4383 209.049 49.4529" stroke="#1D1D1B" stroke-miterlimit="10"/>
<path fill-rule="evenodd" clip-rule="evenodd" d="M385.145 475.113L378.357 523.8H347.175C347.175 523.8 347.352 510.898 363.371 506.432C364.287 506.172 364.648 474.652 364.648 474.652L385.145 475.113Z" fill="black"/>
<path fill-rule="evenodd" clip-rule="evenodd" d="M499.96 480.225L499.464 527.971L464.704 528.148C464.704 528.148 465.972 517.378 482.504 510.595C483.613 510.142 477.464 481.123 477.464 481.123L499.96 480.225Z" fill="black"/>
<path fill-rule="evenodd" clip-rule="evenodd" d="M457.379 143.182C457.379 143.182 490.224 175.5 493.307 137.483C494.987 116.405 479.866 94.2023 462.226 87.6968C445.744 81.6278 438.083 72.9482 450.743 48.8233C461.167 28.9795 428.406 21.2652 418.821 37.0715C406.078 57.9982 413.395 67.3996 417.645 71.2945C429.507 82.1398 423.156 92.0533 412.983 96.7121C383.431 110.252 417.469 148.907 417.469 148.907L457.379 143.182Z" fill="white" stroke="#1D1D1B" stroke-miterlimit="10"/>
<path fill-rule="evenodd" clip-rule="evenodd" d="M525.026 218.512L390.504 215.876C390.504 215.876 363.917 300.766 361.271 357.234C357.911 429.256 364.236 486.026 364.236 486.026H390.084C390.084 486.026 399.408 462.723 408.313 434.762C415.033 413.701 412.975 385.237 419.334 371.219C425.777 357.058 428.574 351.526 434.177 337.323C439.4 324.328 443.52 310.917 446.492 297.232L447.038 297.518C447.038 297.518 444.988 359.87 451.633 386.404C459.496 417.789 477.674 488.569 477.674 488.569L504.689 488.401C504.689 488.401 512.392 450.56 513.367 419.896C513.871 403.947 507.738 381.107 508.419 363.655C509.536 335.115 531.94 303.855 534.46 281.569C539.895 234.528 525.026 218.512 525.026 218.512Z" fill="#D0D7E1" stroke="black" stroke-miterlimit="10"/>
<path fill-rule="evenodd" clip-rule="evenodd" d="M458.546 85.9592C458.546 85.9592 450.524 94.8487 424.055 95.9315C415.654 96.2757 412.992 96.2589 412.992 96.2589C412.992 96.2589 396.939 102.135 391.235 119.217C386.195 134.192 394.082 137.483 378.828 174.938C364.824 209.354 386.673 216.287 386.673 216.287L543.482 218.512C543.482 218.512 519.406 158.477 501.06 120.426C489.569 96.5863 458.546 85.9592 458.546 85.9592Z" fill="#FA917A" stroke="black" stroke-miterlimit="10"/>
<path fill-rule="evenodd" clip-rule="evenodd" d="M378.634 258.543C378.634 258.543 409.581 263.202 424.836 279.302C436.596 291.675 459.176 289.468 473.012 277.791C504.16 251.484 480.06 205.534 488.787 178.287C497.885 149.864 490.148 121.206 482 117.899C477.497 116.094 457.16 135.93 443.409 174.274C430.347 210.671 398.173 200.691 389.647 218.293C387.522 222.692 378.634 258.543 378.634 258.543Z" fill="black"/>
<path fill-rule="evenodd" clip-rule="evenodd" d="M361.128 185.967C361.128 185.967 354.878 178.136 351.367 174.946C347.856 171.756 344.386 162.447 340.01 156.403C336.322 151.316 334.407 152.592 329.089 150.091C325.729 148.521 322.747 146.985 322.184 149.956C321.622 152.928 323.47 154.926 326.133 156.361C328.795 157.796 332.055 158.947 333.903 161.305L338.792 168.163C338.792 168.163 331.03 175.441 331.4 180.31C331.769 185.178 333.432 189.426 337.994 194.462L350.838 202.932L361.128 185.967Z" fill="white" stroke="#1D1D1B" stroke-miterlimit="10"/>
<path fill-rule="evenodd" clip-rule="evenodd" d="M342.648 166.854C342.211 167.24 340.237 163.135 338.758 159.945C336.885 155.908 334.348 154.909 331.626 154.422C328.567 153.702 325.587 152.678 322.73 151.367C320.731 150.527 318.824 150.426 318.715 152.693C318.606 154.959 318.908 156.89 323.016 158.972C327.124 161.053 330.005 160.953 330.728 162.598C331.45 164.243 335.281 171.194 335.281 171.194" fill="white"/>
<path d="M342.648 166.854C342.211 167.24 340.237 163.135 338.758 159.945C336.885 155.908 334.348 154.909 331.626 154.422C328.567 153.702 325.587 152.678 322.73 151.367C320.731 150.527 318.824 150.426 318.715 152.693C318.606 154.959 318.908 156.89 323.016 158.972C327.124 161.053 330.005 160.953 330.728 162.598C331.45 164.243 335.281 171.194 335.281 171.194" stroke="#1D1D1B" stroke-miterlimit="10"/>
<path fill-rule="evenodd" clip-rule="evenodd" d="M339.951 171.017C337.958 169.383 336.048 167.649 334.23 165.821C333.115 164.727 331.766 163.899 330.285 163.399C328.805 162.899 327.23 162.74 325.679 162.934C322.551 163.248 319.399 163.248 316.271 162.934C314.095 162.757 312.272 163.328 312.911 165.494C313.549 167.66 314.481 169.414 319.034 170.027C323.587 170.64 326.292 169.607 327.51 170.925C328.728 172.243 334.625 177.565 334.625 177.565" fill="white"/>
<path d="M339.951 171.017C337.958 169.383 336.048 167.649 334.23 165.821C333.115 164.727 331.766 163.899 330.285 163.399C328.805 162.899 327.23 162.74 325.679 162.934C322.551 163.248 319.399 163.248 316.271 162.934C314.095 162.757 312.272 163.328 312.911 165.494C313.549 167.66 314.481 169.414 319.034 170.027C323.587 170.64 326.292 169.607 327.51 170.925C328.728 172.243 334.625 177.565 334.625 177.565" stroke="#1D1D1B" stroke-miterlimit="10"/>
<path fill-rule="evenodd" clip-rule="evenodd" d="M337.532 175.441C336.046 173.797 334.422 172.283 332.676 170.917C330.433 169.297 327.636 169.498 325.251 170.421C322.482 171.291 319.635 171.887 316.749 172.201C314.759 172.461 313.205 173.326 314.078 175.147C314.952 176.969 316.993 179 321.185 178.681C325.377 178.362 327.661 176.91 328.938 177.842C330.215 178.774 334.533 182.383 334.533 182.383" fill="white"/>
<path d="M337.532 175.441C336.046 173.797 334.422 172.283 332.676 170.917C330.433 169.297 327.636 169.498 325.251 170.421C322.482 171.291 319.635 171.887 316.749 172.201C314.759 172.461 313.205 173.326 314.078 175.147C314.952 176.969 316.993 179 321.185 178.681C325.377 178.362 327.661 176.91 328.938 177.842C330.215 178.774 334.533 182.383 334.533 182.383" stroke="#1D1D1B" stroke-miterlimit="10"/>
<path fill-rule="evenodd" clip-rule="evenodd" d="M504.202 120.879C511.015 145.021 502.9 152.777 504.336 174.048C505.773 195.167 526.564 225.949 498.859 258.913C479.875 281.51 452.389 277.498 434.446 263.404C419.687 251.811 408.01 253.264 390.319 247.018C371.906 240.513 364.875 226.192 358.667 210.638C357.533 207.784 348.276 201.572 348.276 201.572L360.7 184.784C360.7 184.784 362.019 186.412 368.949 188.326C377.526 190.693 390.672 183.634 407.8 188.209C430.825 194.362 447.542 214.054 447.861 207.658C448.231 200.103 433.253 173.829 432.968 143.963C432.674 116.682 443.51 99.3898 461.806 94.3366C481.093 88.9811 499.036 102.462 504.202 120.879Z" fill="#FA917A" stroke="black" stroke-miterlimit="10"/>
<path fill-rule="evenodd" clip-rule="evenodd" d="M416.595 41.3273C416.367 41.8287 416.085 42.3042 415.755 42.7459C414.579 44.3156 411.74 46.1036 409.363 47.2536C405.877 48.9324 406.003 50.5189 408.724 50.9134C410.447 51.1474 412.193 51.1474 413.916 50.9134" fill="white"/>
<path d="M416.595 41.3273C416.367 41.8287 416.085 42.3042 415.755 42.7459C414.579 44.3156 411.74 46.1036 409.363 47.2536C405.877 48.9324 406.003 50.5189 408.724 50.9134C410.447 51.1474 412.193 51.1474 413.916 50.9134" stroke="#1D1D1B" stroke-miterlimit="10"/>
<path fill-rule="evenodd" clip-rule="evenodd" d="M426.718 30.0876C426.718 30.0876 431.917 31.3887 432.405 43.258C432.623 48.5464 435.009 46.5066 436.966 43.5854C438.923 40.6642 443.795 42.2843 443.795 46.8339C443.795 51.3836 437.562 53.054 441.519 58.5438C445.249 63.723 444.039 68.9358 446.047 62.5898C448.374 55.1694 450.919 44.2317 456.43 45.4321C460.084 46.2212 463.704 53.3059 470.844 52.8442C480.555 52.2062 480.034 46.1708 483.352 43.5182C486.671 40.8657 493.954 44.3577 497.347 36.6686C500.094 30.4485 493.744 25.093 496.289 20.4343C499.347 14.8269 498.607 9.25321 493.231 5.32474C487.477 1.12765 483.621 5.73605 479.942 4.98057C476.263 4.2251 474.515 -0.744254 467.241 0.0951633C461.075 0.808668 460.672 8.57328 453.254 10.0507C447.298 11.2426 445.35 16.9759 446.047 21.7018C446.778 26.7383 450.247 30.65 447.525 29.7518C432.673 24.8832 426.718 30.0876 426.718 30.0876Z" fill="black"/>
<path d="M435.446 287.336L446.895 297.501" stroke="#1D1D1B" stroke-miterlimit="10"/>
<path d="M415.596 58.4011C416.504 58.6596 417.465 58.6739 418.381 58.4425C419.297 58.2111 420.136 57.7422 420.812 57.0833" stroke="black" stroke-miterlimit="10"/>
<path d="M444.583 28.613L448.281 27.0271L456.222 45.5167L452.525 47.1026L444.583 28.613Z" fill="#D0D7E1" stroke="black" stroke-miterlimit="10"/>
<path fill-rule="evenodd" clip-rule="evenodd" d="M265.108 271.869C265.108 271.869 255.481 286.576 261.336 297.337C265.537 305.009 279.036 311.33 288.671 302.18C298.625 292.728 295.5 279.751 284.244 274.53C275.315 270.35 265.108 271.869 265.108 271.869Z" fill="#F39F79" stroke="black" stroke-miterlimit="10"/>
<path fill-rule="evenodd" clip-rule="evenodd" d="M220.444 322.234C220.444 322.234 211.682 338.871 208.003 339.593C203.492 340.483 190.261 327.774 178.988 322.906C178.308 322.612 176.603 318.113 174.334 316.484C170.748 313.907 169.362 309.156 168.715 310.801C167.345 314.318 172.167 319.195 171.504 318.591C171.012 318.179 170.496 317.798 169.958 317.449C169.103 316.912 168.144 316.56 167.144 316.417C164.926 315.787 163.465 316.274 162.457 316.19C160.44 316.022 160.709 318.012 162.196 318.331C164.212 318.767 168.303 319.699 167.547 320.278C167.303 320.471 166.463 319.758 164.573 319.565C162.288 319.321 160.054 319.422 160.491 321.101C160.81 322.343 162.49 321.94 164.204 322.427C165.917 322.914 167.27 323.267 167.093 323.678C166.917 324.089 166.119 323.384 164.128 323.183C162.725 323.04 160.239 322.738 160.667 324.484C160.936 325.592 162.583 325.499 164.027 325.818C166.153 326.289 167.11 326.75 166.732 327.17C166.354 327.59 164.977 326.767 163.591 326.809C162.204 326.851 161.331 326.733 161.196 327.539C161.02 328.605 161.625 328.975 163.868 329.739C164.582 329.99 165.733 330.066 166.388 330.653C169.748 333.86 171.126 334.339 174.124 336.588C180.433 341.339 191.715 361.443 206.659 363.953C215.185 365.38 222.762 362.778 228.273 355.416C236.455 344.504 238.084 330.695 238.084 330.695L220.444 322.234Z" fill="white" stroke="#1D1E1C" stroke-miterlimit="10"/>
<path fill-rule="evenodd" clip-rule="evenodd" d="M250.996 301.182C250.996 301.182 247.854 297.169 241.26 296.405C234.069 295.566 224.501 296.271 219.108 307.796C215.495 315.752 212.357 323.914 209.708 332.24L243.007 338.418L250.996 301.182Z" fill="white" stroke="black" stroke-miterlimit="10"/>
<path fill-rule="evenodd" clip-rule="evenodd" d="M234.96 298.26C234.96 298.26 243.469 296.582 243.746 285.233C244.007 274.706 235.514 279.357 231.919 270.526C230.239 266.43 230.314 258.212 231.129 254.225C231.365 252.801 231.401 251.352 231.238 249.918C230.701 239.787 233.867 232.668 244.83 231.636C258.875 230.309 269.518 234.993 269.905 250.011C270.274 264.281 258.27 277.644 266.049 294.5C271.35 306 269.661 298.865 269.661 298.865C269.661 298.865 262.386 306.075 240.613 312.648C236.371 313.924 228.995 315.922 228.995 315.922L234.96 298.26Z" fill="white" stroke="#1D1E1C" stroke-miterlimit="10"/>
<path fill-rule="evenodd" clip-rule="evenodd" d="M240.075 295.138C240.075 295.138 234.682 301.526 239.714 300.804C248.526 299.545 260.799 290.546 273.483 295.767C286.168 300.988 293.896 334.213 295.173 348.197C296.156 359.001 285 364.289 285 364.289H226.349C226.349 364.289 217.537 363.391 218.68 347.929C219.385 338.477 224.787 311.934 227.248 302.785C229.239 295.364 235.43 295.23 235.43 295.23L240.075 295.138Z" fill="white" stroke="black" stroke-miterlimit="10"/>
<path fill-rule="evenodd" clip-rule="evenodd" d="M228.39 505.613L226.761 525.121C226.761 525.121 226.5 529.789 222.3 529.948C218.1 530.107 194.747 531.216 194.218 528.999C192.908 523.443 207.449 520.975 209.759 516.098C211.211 512.796 212.064 509.263 212.279 505.664L228.39 505.613Z" fill="#373D4E" stroke="#1D1D1B" stroke-miterlimit="10"/>
<path fill-rule="evenodd" clip-rule="evenodd" d="M296.172 506.008L295.206 525.558C295.206 525.558 295.097 530.233 290.905 530.536C286.714 530.838 263.411 532.735 262.815 530.536C261.311 525.029 275.76 522.074 277.935 517.105C280.111 512.136 275.558 502.541 275.558 502.541L296.172 506.008Z" fill="#373D4E" stroke="#1D1D1B" stroke-miterlimit="10"/>
<path fill-rule="evenodd" clip-rule="evenodd" d="M285.21 364.524C285.21 364.524 304.237 381.463 299.096 415.997C293.585 453.276 305.9 460.176 302.456 482.084C300.541 494.34 297.206 512.421 297.206 512.421L277.885 512.589C277.885 512.589 263.772 477.896 256.691 448.617C252.592 431.669 251.743 424.895 251.743 424.895L251.18 421.537C251.18 421.537 250.844 439.417 247.501 454.014C242.846 474.062 236.61 493.709 228.852 512.773L210.893 512.53C210.893 512.53 206.953 469.317 208.532 428.278C210.111 387.239 225.635 364.524 225.635 364.524H285.21Z" fill="#FDE9D7" stroke="black" stroke-miterlimit="10"/>
<path fill-rule="evenodd" clip-rule="evenodd" d="M229.743 378.71C235.363 383.209 242.738 383.797 247.829 380.129C253.608 375.932 257.682 367.823 260.547 359.227C266.2 342.279 271.568 335.497 271.568 335.497C271.568 335.497 261.723 326.079 256.59 329.571C251.458 333.063 248.778 350.69 248.778 350.69C248.778 350.69 246.048 353.788 244.175 352.067C241.789 349.868 228.323 357.532 228.323 357.532L220.41 374.051C223.789 374.998 226.956 376.579 229.743 378.71Z" fill="#1D1D1B" stroke="#1D1E1C" stroke-miterlimit="10"/>
<path fill-rule="evenodd" clip-rule="evenodd" d="M239.613 232.819C239.613 232.819 242.973 233.071 245.813 238.301C248.333 242.934 246.653 246.913 250.382 252.739C256.649 262.493 262.143 261.687 264.848 271.928C265.1 272.902 265.822 267.403 271.904 258.85C277.986 250.296 275.18 235.799 263.647 231.485C252.978 227.497 239.613 232.819 239.613 232.819Z" fill="#F39F79" stroke="black" stroke-miterlimit="10"/>
<path fill-rule="evenodd" clip-rule="evenodd" d="M183.407 299.326C183.771 298.68 184.27 298.12 184.87 297.683C185.469 297.246 186.155 296.942 186.882 296.793C187.609 296.643 188.36 296.651 189.083 296.816C189.807 296.981 190.486 297.299 191.076 297.748C193.538 299.738 193.269 303.624 190.908 305.781C188.842 307.679 184.894 309.005 182.794 306.621C181.416 305.093 181.744 302.088 183.407 299.326Z" fill="#FDE9D7" stroke="black" stroke-miterlimit="10"/>
<path fill-rule="evenodd" clip-rule="evenodd" d="M171.512 297.329C171.148 296.682 170.649 296.12 170.049 295.683C169.449 295.245 168.762 294.94 168.034 294.79C167.307 294.64 166.556 294.647 165.831 294.811C165.107 294.975 164.426 295.293 163.834 295.742C161.381 297.74 161.65 301.618 164.011 303.784C166.077 305.681 170.017 307.007 172.117 304.623C173.503 303.087 173.167 300.057 171.512 297.329Z" fill="#FDE9D7" stroke="black" stroke-miterlimit="10"/>
<path fill-rule="evenodd" clip-rule="evenodd" d="M192.336 338.905C195.839 342.64 200.997 344.126 204.534 340.827C208.07 337.528 206.81 333.34 203.307 329.604C199.804 325.869 184.566 315.846 181.03 319.153C177.493 322.461 188.825 335.161 192.336 338.905Z" fill="#FDE9D7" stroke="black" stroke-miterlimit="10"/>
<path fill-rule="evenodd" clip-rule="evenodd" d="M162.893 335.362C164.237 347.307 170.647 356.507 178.854 355.592C187.061 354.677 194.932 347.014 190.614 335.782C188.094 329.142 189.338 325.054 187.641 320.958C185.121 314.797 179.593 311.724 173.973 312.329C165.792 313.244 161.558 323.409 162.893 335.362Z" fill="#FDE9D7" stroke="black" stroke-miterlimit="10"/>
<path fill-rule="evenodd" clip-rule="evenodd" d="M167.909 311.775C168.152 317.332 174.293 320.589 179.786 320.253C184.549 319.951 186.918 318.129 187.49 314.881C188.128 311.196 186.935 309.399 187.414 307.536C189.321 300.124 179.148 296.665 174.276 298.646C168.438 301.005 167.698 306.831 167.909 311.775Z" fill="#FDE9D7" stroke="black" stroke-miterlimit="10"/>
<path fill-rule="evenodd" clip-rule="evenodd" d="M186.036 365.389C187.548 370.089 191.505 373.472 196.066 372.003C200.627 370.534 201.316 366.371 199.796 361.67C198.275 356.969 189.018 342.019 184.457 343.488C179.896 344.957 184.524 360.688 186.036 365.389Z" fill="#FDE9D7" stroke="black" stroke-miterlimit="10"/>
<path fill-rule="evenodd" clip-rule="evenodd" d="M168.513 368.117C168.513 373.153 171.395 377.619 176.359 377.585C181.324 377.552 183.289 373.716 183.256 368.704C183.222 363.693 178.72 346.384 173.755 346.418C168.79 346.451 168.471 363.097 168.513 368.117Z" fill="#FDE9D7" stroke="black" stroke-miterlimit="10"/>
<path fill-rule="evenodd" clip-rule="evenodd" d="M248.35 319.246C248.35 319.246 234.246 340.164 229.743 342.984C224.216 346.451 202.022 343.547 185.406 343.396C184.415 343.396 180.685 340.206 177.208 339.963C171.705 339.576 168.295 335.841 168.026 337.788C167.446 341.935 175.317 343.782 174.267 343.606C173.476 343.498 172.68 343.436 171.882 343.421C170.531 343.411 169.188 343.626 167.908 344.059C164.817 344.747 163.103 346.057 161.776 346.577C159.113 347.584 160.138 349.33 162.171 348.776C164.918 348.021 170.513 346.544 169.731 347.534C169.479 347.861 168.144 347.66 165.649 348.567C162.616 349.666 159.769 351.085 160.894 352.403C161.734 353.41 163.759 352.059 166.144 351.513C168.354 351.009 170.344 350.548 170.344 351.043C170.235 351.681 168.975 351.32 166.338 352.285C164.481 352.965 161.171 354.115 162.314 355.534C163.036 356.432 165.136 355.391 167.077 354.871C169.983 354.098 171.378 353.981 171.025 354.602C170.672 355.223 168.631 355.232 166.825 356.071C165.019 356.91 163.876 357.313 163.985 358.161C164.12 359.278 165.019 359.278 168.186 358.715C169.194 358.539 170.706 357.943 171.697 358.153C177.107 359.278 179.333 358.153 183.97 358.539C193.731 359.378 215.546 371.583 235.69 365.313C247.182 361.737 252.289 356.961 259.438 347.803C266.914 338.208 270.048 331.711 270.048 331.711L248.35 319.246Z" fill="white" stroke="#1D1E1C" stroke-miterlimit="10"/>
<path fill-rule="evenodd" clip-rule="evenodd" d="M233.573 342.556C230.889 343.355 228.14 343.917 225.358 344.235L233.573 342.556Z" fill="white"/>
<path d="M233.573 342.556C230.889 343.355 228.14 343.917 225.358 344.235" stroke="#1D1E1C" stroke-miterlimit="10"/>
<path fill-rule="evenodd" clip-rule="evenodd" d="M155.543 337.982C154.107 342.716 155.476 347.778 160.163 349.196C164.851 350.615 167.825 347.584 169.261 342.85C170.697 338.116 171.529 320.496 166.842 319.078C162.154 317.659 156.98 333.247 155.543 337.982Z" fill="#FDE9D7" stroke="black" stroke-miterlimit="10"/>
<path d="M183.953 309.097C183.522 309.097 183.172 308.748 183.172 308.317C183.172 307.885 183.522 307.536 183.953 307.536C184.384 307.536 184.734 307.885 184.734 308.317C184.734 308.748 184.384 309.097 183.953 309.097Z" fill="#1D1D1B" stroke="#1D1E1C" stroke-miterlimit="10"/>
<path d="M174.813 309.097C174.382 309.097 174.032 308.748 174.032 308.317C174.032 307.885 174.382 307.536 174.813 307.536C175.245 307.536 175.595 307.885 175.595 308.317C175.595 308.748 175.245 309.097 174.813 309.097Z" fill="#1D1D1B" stroke="#1D1E1C" stroke-miterlimit="10"/>
<path fill-rule="evenodd" clip-rule="evenodd" d="M265.965 298.05C265.965 298.05 279.069 296.665 281.766 311.54C284.236 325.197 274.685 341.322 274.685 341.322L243.973 323.485C243.973 323.485 251.038 310.558 255.683 304.497C260.866 297.74 265.965 298.05 265.965 298.05Z" fill="white" stroke="black" stroke-miterlimit="10"/>
<path fill-rule="evenodd" clip-rule="evenodd" d="M231.238 249.868C231.527 251.05 231.489 252.288 231.128 253.45C230.767 254.612 230.096 255.655 229.189 256.466C227.509 257.985 227.156 258.715 227.592 259.773C228.281 261.452 232.633 260.822 232.633 260.822" fill="white"/>
<path d="M231.238 249.868C231.527 251.05 231.489 252.288 231.128 253.45C230.767 254.612 230.096 255.655 229.189 256.466C227.509 257.985 227.156 258.715 227.592 259.773C228.281 261.452 232.633 260.822 232.633 260.822" stroke="#1D1E1C" stroke-miterlimit="10"/>
<path d="M241.293 405.202L251.466 422.268" stroke="black" stroke-miterlimit="10"/>
<path fill-rule="evenodd" clip-rule="evenodd" d="M233.632 267.596C233.632 267.596 237.48 267.865 238.866 264.541L233.632 267.596Z" fill="white"/>
<path d="M233.632 267.596C233.632 267.596 237.48 267.865 238.866 264.541" stroke="#1D1E1C" stroke-miterlimit="10"/>
<path fill-rule="evenodd" clip-rule="evenodd" d="M503.236 277.162C503.236 277.162 491.61 305.047 488.258 308.161C484.142 311.989 463.671 317.907 451.809 320.803C450.927 321.021 446.24 317.361 442.838 317.126C437.462 316.749 434.555 312.468 434.135 315.296C433.446 319.846 442.309 321.307 441.25 321.13C440.483 320.97 439.698 320.908 438.915 320.946C437.51 321.082 436.135 321.439 434.841 322.003C432.153 323.061 430.002 324.899 428.902 325.462C426.701 326.578 428.221 328.425 430.027 327.98C432.296 327.434 438.159 324.396 438.235 325.42C438.235 325.798 436.361 325.932 434.278 326.939C431.758 328.156 428.499 330.482 430.036 331.976C431.17 333.059 434.043 330.431 436.134 329.818C438.075 329.248 439.713 328.727 439.856 329.147C440.083 329.818 438.73 329.491 436.538 330.565C434.992 331.321 430.531 333.814 432.396 335.375C433.463 336.265 436.428 334.057 438.109 333.47C440.629 332.63 441.914 332.463 441.788 333.134C441.662 333.806 439.721 333.974 438.302 334.872C436.882 335.77 434.505 337.306 434.891 338.229C435.387 339.447 436.571 339.497 440.141 337.692C440.981 337.281 442.594 336.534 443.602 336.777C450.213 338.38 451.247 336.097 455.825 335.938C477.792 335.14 486.141 336.148 499.279 330.851C509.074 326.906 515.03 313.794 521.75 304.829C531.747 291.457 527.454 289.803 527.454 289.803L503.236 277.162Z" fill="white" stroke="#1D1E1C" stroke-miterlimit="10"/>
<path fill-rule="evenodd" clip-rule="evenodd" d="M446.316 328.383C444.417 326.127 442.746 323.689 441.326 321.105L446.316 328.383Z" fill="white"/>
<path d="M446.316 328.383C444.417 326.127 442.746 323.689 441.326 321.105" stroke="#1D1E1C" stroke-miterlimit="10"/>
<path fill-rule="evenodd" clip-rule="evenodd" d="M543.347 253.658C543.347 253.658 539.508 248.756 531.452 247.824C522.674 246.808 510.989 247.665 504.395 261.742C499.983 271.46 496.148 281.43 492.912 291.6L533.586 299.155L543.347 253.658Z" fill="#61AC34" stroke="black" stroke-miterlimit="10"/>
<path fill-rule="evenodd" clip-rule="evenodd" d="M551.605 251.45C550.054 249.604 548.129 248.107 545.957 247.059C543.785 246.01 541.416 245.432 539.004 245.365C530.167 245.214 520.524 247.723 515.316 262.388C512.062 271.968 509.749 281.841 508.411 291.868L544.624 289.266L551.605 251.45Z" fill="#1D1D1B" stroke="#1D1E1C" stroke-miterlimit="10"/>
<path fill-rule="evenodd" clip-rule="evenodd" d="M529.882 246.238C529.882 246.238 531.898 244.559 531.688 237.768C531.335 226.486 518.356 227.082 517.054 212.401C516.811 209.656 517.894 204.787 519.146 200.649C519.63 199.169 519.822 197.61 519.709 196.057C518.281 185.447 524.043 178.035 535.846 178.043C550.966 178.043 562.088 184.003 560.971 200.086C559.913 215.355 543.33 223.817 561.366 244.794C570.211 255.093 566.876 256.655 566.876 256.655C566.876 256.655 547.237 259.173 523.329 263.966C518.676 264.898 518.97 253.473 518.97 253.473L529.882 246.238Z" fill="white" stroke="#1D1E1C" stroke-miterlimit="10"/>
<path fill-rule="evenodd" clip-rule="evenodd" d="M530.201 245.709C530.201 245.709 523.531 252.903 529.672 253.868C539.105 255.345 561.685 245.113 561.685 245.113C566.129 245.316 570.472 246.5 574.403 248.58C589.079 256.672 595.757 294.042 597.311 311.116C598.512 324.312 584.887 330.784 584.887 330.784H513.241C513.241 330.784 502.64 329.466 503.16 310.537C503.412 301.698 509.519 292.213 509.351 277.9C509.225 266.661 511.762 257.805 514.501 253.658C518.634 247.413 524.464 246.456 524.464 246.456L530.201 245.709Z" fill="#61AC34" stroke="black" stroke-miterlimit="10"/>
<path fill-rule="evenodd" clip-rule="evenodd" d="M514.509 499.339L512.493 523.17C512.493 523.17 512.165 528.87 507.033 529.046C504.017 529.155 491.072 529.499 481.656 529.499C475.532 529.499 472.995 528.962 472.735 527.82C471.138 521.029 488.905 518.041 491.736 512.09C493.514 508.067 494.564 503.761 494.836 499.372L514.509 499.339Z" fill="#373D4E" stroke="#1D1D1B" stroke-miterlimit="10"/>
<path fill-rule="evenodd" clip-rule="evenodd" d="M577.503 497.156L576.486 522.96C576.486 522.96 576.562 528.677 571.446 529.222C568.431 529.55 557.535 529.642 548.95 529.566C543.011 529.516 537.929 529.356 537.19 527.887C534.065 521.642 553.285 517.689 555.671 511.552C558.056 505.416 556.754 495.444 556.754 495.444L577.503 497.156Z" fill="#373D4E" stroke="#1D1D1B" stroke-miterlimit="10"/>
<path fill-rule="evenodd" clip-rule="evenodd" d="M488.905 401.656C488.905 401.656 486.813 425.823 489.266 449.964C491.719 474.106 494.785 499.238 494.785 499.238L514.585 499.44C514.585 499.44 519.625 467.458 520.314 453.07C521.003 438.682 516.483 432.429 518.827 427.208C521.171 421.986 532.108 400.875 532.108 400.875L488.905 401.656Z" fill="white" stroke="#1D1E1C" stroke-miterlimit="10"/>
<path fill-rule="evenodd" clip-rule="evenodd" d="M547.228 415.766C547.228 415.766 541.104 427.35 546.808 450.93C552.512 474.509 556.771 496.938 556.771 496.938L577.503 497.198C577.503 497.198 579.863 472.108 578.553 457.746C577.243 443.383 575.722 442.032 577.335 436.542C578.948 431.052 581.787 422.146 581.787 422.146L547.228 415.766Z" fill="white" stroke="#1D1E1C" stroke-miterlimit="10"/>
<path fill-rule="evenodd" clip-rule="evenodd" d="M585.139 331.036C585.139 331.036 586.642 341.033 591.531 385.69C593.352 403.352 594.132 421.105 593.867 438.859L541.718 440.345C541.718 440.345 541.256 432.513 541.079 422.129C540.659 396.703 541.642 388.477 541.642 388.477H541.39C541.39 388.477 539.567 396.267 535.359 414.079C531.755 429.331 529.21 439.916 529.21 439.916L481.093 431.237C483.875 414.631 487.699 398.216 492.542 382.089C500.539 355.74 512.375 331.036 512.375 331.036H585.139Z" fill="#373D4E" stroke="#1D1D1B" stroke-miterlimit="10"/>
<path fill-rule="evenodd" clip-rule="evenodd" d="M569.279 294.68C576.722 308.623 565.919 330.826 577.755 330.826C591.321 330.826 575.302 398.97 581.955 390.139C587.256 383.147 591.279 383.046 591.279 383.046C591.279 383.046 589.171 356.747 582.879 361.011C576.587 365.275 602.359 304.283 602.359 304.283C602.359 304.283 577.495 283.222 575.21 281.124C572.295 278.429 572.102 265.586 572.102 265.586H561.643C561.643 265.586 562.492 281.963 569.279 294.68Z" fill="#1D1D1B" stroke="#1D1E1C" stroke-miterlimit="10"/>
<path fill-rule="evenodd" clip-rule="evenodd" d="M530.386 178.622C530.386 178.622 533.905 179.235 536.442 185.103C538.694 190.307 536.879 195.293 539.861 200.985C541.751 204.602 544.599 197.064 547.262 196.989C554.688 196.779 549.916 213.198 553.982 220.711C554.192 221.097 555.066 218.277 563.222 208.405C568.758 201.648 568.044 185.422 556.158 179.638C545.195 174.299 530.386 178.622 530.386 178.622Z" fill="black"/>
<path fill-rule="evenodd" clip-rule="evenodd" d="M578.318 289.149C578.318 289.149 592.363 315.708 593.237 321.802C593.791 325.697 581.039 354.909 574.16 366.425C573.572 367.399 568.624 369.237 565.843 374.039C562.651 379.546 557.325 381.426 559.216 382.651C563.231 385.27 568.893 377.883 568.212 378.908C567.724 379.688 567.281 380.495 566.885 381.325C566.23 382.744 565.813 384.262 565.65 385.816C564.886 389.4 565.423 391.843 565.306 393.48C565.087 396.77 567.381 396.544 567.775 394.135C568.305 390.886 569.455 384.28 570.102 385.564C570.321 385.992 569.481 387.302 569.262 390.374C568.951 394.093 569.019 397.769 570.942 397.232C572.379 396.829 571.95 394.042 572.522 391.272C573.051 388.712 573.538 386.345 574.017 386.672C574.496 387 573.656 388.242 573.395 391.49C573.21 393.774 572.824 397.811 574.832 397.299C576.109 396.972 576.033 394.261 576.419 391.969C576.999 388.536 577.545 387.016 578.024 387.679C578.503 388.343 577.537 390.508 577.553 392.792C577.57 395.075 577.436 396.493 578.393 396.796C579.62 397.198 580.073 396.242 580.972 392.649C581.266 391.507 581.375 389.627 582.056 388.678C585.802 383.541 586.374 381.3 589.011 376.624C594.53 366.778 616.002 350.359 619.16 326.125C620.907 312.266 617.295 303.033 611.222 291.046C607.998 284.511 604.4 278.169 600.444 272.05L578.318 289.149Z" fill="white" stroke="#1D1E1C" stroke-miterlimit="10"/>
<path fill-rule="evenodd" clip-rule="evenodd" d="M594.64 316.136C594.179 319.345 593.44 322.507 592.43 325.588L594.64 316.136Z" fill="white"/>
<path d="M594.64 316.136C594.179 319.345 593.44 322.507 592.43 325.588" stroke="#1D1E1C" stroke-miterlimit="10"/>
<path d="M568.859 376.18L568.212 378.908" stroke="#1D1E1C" stroke-miterlimit="10"/>
<path fill-rule="evenodd" clip-rule="evenodd" d="M560.812 259.702C560.812 259.702 566.415 244.005 583.694 250.544C599.848 256.672 611.037 276.809 611.037 276.809L577.797 297.09C577.797 297.09 567.061 282.643 562.676 274.425C557.838 265.192 560.812 259.702 560.812 259.702Z" fill="#61AC34" stroke="black" stroke-miterlimit="10"/>
<path fill-rule="evenodd" clip-rule="evenodd" d="M519.709 195.973C519.9 197.265 519.735 198.585 519.232 199.79C518.729 200.996 517.906 202.041 516.853 202.815C514.887 204.25 514.45 205.005 514.803 206.172C515.374 208.036 520.12 207.801 520.12 207.801" fill="white"/>
<path d="M519.709 195.973C519.9 197.265 519.735 198.585 519.232 199.79C518.729 200.996 517.906 202.041 516.853 202.815C514.887 204.25 514.45 205.005 514.803 206.172C515.374 208.036 520.12 207.801 520.12 207.801" stroke="#1D1E1C" stroke-miterlimit="10"/>
<path d="M539.172 378.84L541.617 389.19" stroke="black" stroke-miterlimit="10"/>
<rect x="0.640856" y="-0.298836" width="8" height="78.4199" transform="matrix(0.939693 0.34202 0.34202 -0.939693 58.1409 326.834)" fill="#5FAF2D" stroke="#1D1E1C"/>
<rect x="85.7648" y="253.38" width="8" height="82.9629" transform="rotate(-20 85.7648 253.38)" fill="#5FAF2D" stroke="#1D1E1C"/>
<path d="M126 256.003L122.5 257.066L119.5 258.503C119.5 258.503 118.639 259.29 115.14 262.332C111.641 265.374 101.093 268.814 99.2162 268.843C97.3389 268.872 95.2544 268.904 91.9431 270.603C88.6317 272.303 87.4811 272.012 84.0433 272.271C80.6056 272.529 79.66 272.026 79.3179 270.18C78.9758 268.334 79.8027 267.494 81.8781 265.092C83.9534 262.689 91.5774 260.408 94.3493 257.583C97.1213 254.758 102.101 253.032 102.101 253.032" fill="white"/>
<path d="M126 256.003L122.5 257.066L119.5 258.503C119.5 258.503 118.639 259.29 115.14 262.332C111.641 265.374 101.093 268.814 99.2162 268.843C97.3389 268.872 95.2544 268.904 91.9431 270.603C88.6317 272.303 87.4811 272.012 84.0433 272.271C80.6056 272.529 79.66 272.026 79.3179 270.18C78.9758 268.334 79.8027 267.494 81.8781 265.092C83.9534 262.689 91.5774 260.408 94.3493 257.583C97.1213 254.758 102.101 253.032 102.101 253.032" stroke="black" stroke-miterlimit="10"/>
</svg>